<svg xmlns="http://www.w3.org/2000/svg" viewBox="0 0 720 1280">
  <defs>
    <!-- Wall gradient -->
    <linearGradient id="wallGrad" x1="0" y1="0" x2="0" y2="1">
      <stop offset="0%" stop-color="#3a2a1a"/>
      <stop offset="50%" stop-color="#4a3525"/>
      <stop offset="100%" stop-color="#3d2d1d"/>
    </linearGradient>

    <!-- Floor gradient -->
    <linearGradient id="floorGrad" x1="0" y1="0" x2="0" y2="1">
      <stop offset="0%" stop-color="#3a2818"/>
      <stop offset="100%" stop-color="#1e1208"/>
    </linearGradient>

    <!-- Night sky gradient -->
    <linearGradient id="skyGrad" x1="0" y1="0" x2="0" y2="1">
      <stop offset="0%" stop-color="#0a0e1a"/>
      <stop offset="40%" stop-color="#111833"/>
      <stop offset="100%" stop-color="#1a2244"/>
    </linearGradient>

    <!-- Curtain gradient left -->
    <linearGradient id="curtainL" x1="0" y1="0" x2="1" y2="0">
      <stop offset="0%" stop-color="#6b1a1a"/>
      <stop offset="40%" stop-color="#8b2a2a"/>
      <stop offset="70%" stop-color="#7a2222"/>
      <stop offset="100%" stop-color="#4a1010"/>
    </linearGradient>

    <!-- Curtain gradient right -->
    <linearGradient id="curtainR" x1="1" y1="0" x2="0" y2="0">
      <stop offset="0%" stop-color="#6b1a1a"/>
      <stop offset="40%" stop-color="#8b2a2a"/>
      <stop offset="70%" stop-color="#7a2222"/>
      <stop offset="100%" stop-color="#4a1010"/>
    </linearGradient>

    <!-- Moon glow -->
    <radialGradient id="moonGlow" cx="0.5" cy="0.5" r="0.5">
      <stop offset="0%" stop-color="#e8eeff" stop-opacity="1"/>
      <stop offset="60%" stop-color="#c0ccee" stop-opacity="0.4"/>
      <stop offset="100%" stop-color="#8899cc" stop-opacity="0"/>
    </radialGradient>

    <!-- Moonlight spill into room -->
    <radialGradient id="moonlightSpill" cx="0.5" cy="0.3" r="0.7">
      <stop offset="0%" stop-color="#aabbdd" stop-opacity="0.12"/>
      <stop offset="60%" stop-color="#6677aa" stop-opacity="0.04"/>
      <stop offset="100%" stop-color="#334466" stop-opacity="0"/>
    </radialGradient>

    <!-- Cabinet wood gradient -->
    <linearGradient id="cabinetWood" x1="0" y1="0" x2="0" y2="1">
      <stop offset="0%" stop-color="#5a3d20"/>
      <stop offset="30%" stop-color="#6b4a2a"/>
      <stop offset="70%" stop-color="#5e3e22"/>
      <stop offset="100%" stop-color="#4a3018"/>
    </linearGradient>

    <!-- Cabinet side darker -->
    <linearGradient id="cabinetSide" x1="0" y1="0" x2="1" y2="0">
      <stop offset="0%" stop-color="#3a2510"/>
      <stop offset="100%" stop-color="#4a3218"/>
    </linearGradient>

    <!-- Glass panel gradient -->
    <linearGradient id="glassPanelGrad" x1="0" y1="0" x2="0.3" y2="1">
      <stop offset="0%" stop-color="#2a3040" stop-opacity="0.7"/>
      <stop offset="50%" stop-color="#1e2535" stop-opacity="0.85"/>
      <stop offset="100%" stop-color="#151c28" stop-opacity="0.9"/>
    </linearGradient>

    <!-- Sconce glow -->
    <radialGradient id="sconceGlow" cx="0.5" cy="0.3" r="0.6">
      <stop offset="0%" stop-color="#ffdd88" stop-opacity="0.5"/>
      <stop offset="50%" stop-color="#ffcc66" stop-opacity="0.15"/>
      <stop offset="100%" stop-color="#ffaa33" stop-opacity="0"/>
    </radialGradient>

    <!-- Flame gradient -->
    <radialGradient id="flameGrad" cx="0.5" cy="0.7" r="0.5">
      <stop offset="0%" stop-color="#ffffcc"/>
      <stop offset="40%" stop-color="#ffdd66"/>
      <stop offset="100%" stop-color="#ff8800" stop-opacity="0.6"/>
    </radialGradient>

    <!-- Rug gradient -->
    <radialGradient id="rugGrad" cx="0.5" cy="0.5" r="0.5">
      <stop offset="0%" stop-color="#8b3030"/>
      <stop offset="60%" stop-color="#6b2222"/>
      <stop offset="85%" stop-color="#5a1a1a"/>
      <stop offset="100%" stop-color="#4a1212"/>
    </radialGradient>

    <!-- Rug border pattern -->
    <pattern id="rugBorder" width="20" height="20" patternUnits="userSpaceOnUse">
      <rect width="20" height="20" fill="none"/>
      <path d="M0 10 L5 5 L10 10 L5 15Z" fill="#c8942a" opacity="0.5"/>
      <path d="M10 10 L15 5 L20 10 L15 15Z" fill="#c8942a" opacity="0.3"/>
    </pattern>

    <!-- Wallpaper texture -->
    <pattern id="wallTex" width="40" height="40" patternUnits="userSpaceOnUse">
      <rect width="40" height="40" fill="none"/>
      <path d="M20 0 Q23 10 20 20 Q17 10 20 0Z" fill="#5a4030" opacity="0.15"/>
      <circle cx="20" cy="20" r="1.5" fill="#5a4030" opacity="0.1"/>
    </pattern>

    <!-- Padlock body gradient -->
    <linearGradient id="padlockGrad" x1="0" y1="0" x2="0" y2="1">
      <stop offset="0%" stop-color="#c8a040"/>
      <stop offset="50%" stop-color="#a08030"/>
      <stop offset="100%" stop-color="#886820"/>
    </linearGradient>

    <!-- Brass handle gradient -->
    <linearGradient id="brassGrad" x1="0" y1="0" x2="0" y2="1">
      <stop offset="0%" stop-color="#d4a840"/>
      <stop offset="50%" stop-color="#b89030"/>
      <stop offset="100%" stop-color="#9a7820"/>
    </linearGradient>

    <!-- Treeline silhouette -->
    <linearGradient id="treeGrad" x1="0" y1="0" x2="0" y2="1">
      <stop offset="0%" stop-color="#0a1520"/>
      <stop offset="100%" stop-color="#061018"/>
    </linearGradient>

    <!-- Wood grain overlay -->
    <pattern id="woodGrain" width="8" height="80" patternUnits="userSpaceOnUse">
      <rect width="8" height="80" fill="none"/>
      <path d="M0 0 Q4 20 0 40 Q4 60 0 80" stroke="#5a3820" stroke-width="0.5" fill="none" opacity="0.3"/>
      <path d="M4 0 Q8 20 4 40 Q8 60 4 80" stroke="#5a3820" stroke-width="0.3" fill="none" opacity="0.2"/>
    </pattern>
  </defs>

  <!-- ========== WALL ========== -->
  <rect width="720" height="1280" fill="url(#wallGrad)"/>
  <rect width="720" height="1280" fill="url(#wallTex)"/>

  <!-- Wainscoting / lower wall panel -->
  <rect x="0" y="900" width="720" height="100" fill="#3a2818" opacity="0.5"/>
  <line x1="0" y1="900" x2="720" y2="900" stroke="#5a4020" stroke-width="2" opacity="0.6"/>
  <line x1="0" y1="1000" x2="720" y2="1000" stroke="#5a4020" stroke-width="1.5" opacity="0.4"/>

  <!-- ========== FLOOR ========== -->
  <rect x="0" y="1000" width="720" height="280" fill="url(#floorGrad)"/>
  <!-- Floor boards -->
  <line x1="0" y1="1040" x2="720" y2="1040" stroke="#2a1a0e" stroke-width="1" opacity="0.3"/>
  <line x1="0" y1="1090" x2="720" y2="1090" stroke="#2a1a0e" stroke-width="1" opacity="0.3"/>
  <line x1="0" y1="1140" x2="720" y2="1140" stroke="#2a1a0e" stroke-width="1" opacity="0.25"/>
  <line x1="0" y1="1190" x2="720" y2="1190" stroke="#2a1a0e" stroke-width="1" opacity="0.2"/>
  <line x1="0" y1="1240" x2="720" y2="1240" stroke="#2a1a0e" stroke-width="1" opacity="0.15"/>

  <!-- ========== RUG ========== -->
  <ellipse cx="360" cy="1140" rx="250" ry="100" fill="url(#rugGrad)"/>
  <ellipse cx="360" cy="1140" rx="250" ry="100" fill="url(#rugBorder)" opacity="0.4"/>
  <ellipse cx="360" cy="1140" rx="220" ry="85" fill="none" stroke="#c8942a" stroke-width="1.5" opacity="0.3"/>
  <ellipse cx="360" cy="1140" rx="200" ry="75" fill="none" stroke="#c8942a" stroke-width="0.8" opacity="0.2"/>
  <!-- Rug center motif -->
  <path d="M340 1140 L360 1120 L380 1140 L360 1160Z" fill="#c8942a" opacity="0.2"/>
  <circle cx="360" cy="1140" r="12" fill="none" stroke="#c8942a" stroke-width="1" opacity="0.25"/>

  <!-- ========== WINDOW FRAME ========== -->
  <!-- Window recess -->
  <rect x="160" y="50" width="400" height="420" rx="8" fill="#2a1c10"/>
  <!-- Window outer frame -->
  <rect x="170" y="55" width="380" height="410" rx="5" fill="#5a3d22" stroke="#6b4a2a" stroke-width="3"/>

  <!-- Night sky -->
  <rect x="185" y="68" width="350" height="384" rx="3" fill="url(#skyGrad)"/>

  <!-- Stars -->
  <circle cx="220" cy="100" r="1.2" fill="#ffffff" opacity="0.9"/>
  <circle cx="280" cy="85" r="0.8" fill="#ffffff" opacity="0.7"/>
  <circle cx="340" cy="110" r="1" fill="#ffffff" opacity="0.8"/>
  <circle cx="420" cy="90" r="1.3" fill="#ffffff" opacity="0.9"/>
  <circle cx="460" cy="130" r="0.7" fill="#ffffff" opacity="0.6"/>
  <circle cx="250" cy="150" r="0.9" fill="#ffffff" opacity="0.7"/>
  <circle cx="380" cy="160" r="1.1" fill="#ffffff" opacity="0.8"/>
  <circle cx="490" cy="100" r="0.8" fill="#ffffff" opacity="0.65"/>
  <circle cx="310" cy="200" r="0.6" fill="#ffffff" opacity="0.5"/>
  <circle cx="200" cy="180" r="1" fill="#ffffff" opacity="0.7"/>
  <circle cx="450" cy="180" r="0.9" fill="#ffffff" opacity="0.6"/>
  <circle cx="500" cy="160" r="1.2" fill="#ffffff" opacity="0.75"/>
  <circle cx="230" cy="230" r="0.7" fill="#ffffff" opacity="0.55"/>
  <circle cx="470" cy="220" r="0.8" fill="#ffffff" opacity="0.5"/>
  <circle cx="360" cy="250" r="0.6" fill="#ffffff" opacity="0.45"/>

  <!-- Crescent moon with glow -->
  <circle cx="420" cy="150" r="50" fill="url(#moonGlow)"/>
  <circle cx="420" cy="150" r="22" fill="#e8eeff"/>
  <circle cx="430" cy="142" r="18" fill="url(#skyGrad)"/>
  <!-- Moon highlight -->
  <circle cx="412" cy="145" r="3" fill="#ffffff" opacity="0.3"/>

  <!-- Distant treeline -->
  <path d="M185 400 L185 370 L200 340 L210 365 L225 330 L240 360 L250 325 L265 355
           L275 320 L290 350 L300 315 L315 345 L325 310 L340 340 L350 305 L365 335
           L375 300 L390 335 L400 310 L415 340 L425 320 L440 350 L450 330 L465 355
           L475 340 L490 365 L500 345 L515 370 L525 355 L535 400 Z"
        fill="url(#treeGrad)"/>
  <!-- Second tree layer slightly higher -->
  <path d="M185 400 L190 380 L205 350 L215 375 L230 345 L245 370 L255 335 L270 365
           L535 400 Z" fill="#081420" opacity="0.5"/>

  <!-- Window mullions (cross bars) -->
  <rect x="355" y="68" width="6" height="384" fill="#5a3d22"/>
  <rect x="185" y="260" width="350" height="5" fill="#5a3d22"/>
  <!-- Window frame inner edges -->
  <rect x="185" y="68" width="350" height="2" fill="#6b4a2a" opacity="0.6"/>
  <rect x="185" y="68" width="2" height="384" fill="#6b4a2a" opacity="0.4"/>
  <rect x="533" y="68" width="2" height="384" fill="#3a2510" opacity="0.6"/>
  <rect x="185" y="450" width="350" height="2" fill="#3a2510" opacity="0.6"/>

  <!-- Window sill -->
  <rect x="155" y="455" width="410" height="18" rx="2" fill="#5a3d22" stroke="#4a3018" stroke-width="1"/>
  <rect x="155" y="455" width="410" height="4" fill="#6b4a2a" opacity="0.5"/>

  <!-- ========== CURTAINS ========== -->
  <!-- Left curtain -->
  <path d="M100 40 Q115 40 130 42 L130 490 Q120 488 110 490 Q105 490 100 488 Z"
        fill="url(#curtainL)"/>
  <!-- Curtain folds left -->
  <path d="M108 40 Q112 250 108 490" stroke="#4a1010" stroke-width="1.5" fill="none" opacity="0.5"/>
  <path d="M118 42 Q122 250 118 490" stroke="#9a3030" stroke-width="1" fill="none" opacity="0.3"/>
  <path d="M126 42 Q128 250 126 490" stroke="#4a1010" stroke-width="1" fill="none" opacity="0.4"/>

  <!-- Right curtain -->
  <path d="M590 42 Q605 40 620 40 L620 488 Q615 490 610 490 Q600 488 590 490 Z"
        fill="url(#curtainR)"/>
  <!-- Curtain folds right -->
  <path d="M594 42 Q592 250 594 490" stroke="#4a1010" stroke-width="1" fill="none" opacity="0.4"/>
  <path d="M604 42 Q608 250 604 490" stroke="#9a3030" stroke-width="1" fill="none" opacity="0.3"/>
  <path d="M614 40 Q612 250 614 488" stroke="#4a1010" stroke-width="1.5" fill="none" opacity="0.5"/>

  <!-- Curtain rod -->
  <rect x="90" y="35" width="540" height="8" rx="4" fill="#6b4a2a" stroke="#5a3d22" stroke-width="1"/>
  <circle cx="95" cy="39" r="8" fill="#8b6830" stroke="#6b4a2a" stroke-width="1"/>
  <circle cx="625" cy="39" r="8" fill="#8b6830" stroke="#6b4a2a" stroke-width="1"/>

  <!-- Gold tie-backs left -->
  <path d="M128 260 Q155 255 160 265 Q155 275 128 270" fill="none" stroke="#c8a040" stroke-width="3"/>
  <circle cx="160" cy="265" r="5" fill="#d4b050" stroke="#aa8830" stroke-width="1"/>
  <path d="M155 260 L165 250 M155 265 L168 265 M155 270 L165 280" stroke="#c8a040" stroke-width="1.5" fill="none"/>

  <!-- Gold tie-backs right -->
  <path d="M592 260 Q565 255 560 265 Q565 275 592 270" fill="none" stroke="#c8a040" stroke-width="3"/>
  <circle cx="560" cy="265" r="5" fill="#d4b050" stroke="#aa8830" stroke-width="1"/>
  <path d="M565 260 L555 250 M565 265 L552 265 M565 270 L555 280" stroke="#c8a040" stroke-width="1.5" fill="none"/>

  <!-- ========== CABINET ========== -->
  <!-- Cabinet body -->
  <rect x="170" y="530" width="380" height="430" rx="4" fill="url(#cabinetWood)" stroke="#3a2510" stroke-width="2"/>
  <!-- Wood grain overlay -->
  <rect x="170" y="530" width="380" height="430" rx="4" fill="url(#woodGrain)" opacity="0.4"/>

  <!-- Cabinet top molding -->
  <rect x="165" y="525" width="390" height="12" rx="2" fill="#6b4a2a" stroke="#5a3d22" stroke-width="1"/>
  <rect x="165" y="525" width="390" height="3" fill="#7a5a35" opacity="0.5"/>

  <!-- Cabinet decorative trim -->
  <rect x="168" y="536" width="384" height="3" fill="#7a5a35" opacity="0.3"/>

  <!-- ====== Upper section: Glass-paneled doors ====== -->
  <!-- Left door -->
  <rect x="185" y="550" width="165" height="220" rx="3" fill="#4a3218" stroke="#5a3d22" stroke-width="2"/>
  <!-- Left glass panel -->
  <rect x="195" y="560" width="145" height="200" rx="2" fill="url(#glassPanelGrad)" stroke="#5a3d22" stroke-width="1"/>
  <!-- Glass reflection -->
  <path d="M200 565 L215 565 L200 610 Z" fill="#ffffff" opacity="0.06"/>
  <line x1="200" y1="660" x2="335" y2="660" stroke="#ffffff" stroke-width="0.5" opacity="0.04"/>

  <!-- Shadowy books behind left glass -->
  <rect x="200" y="580" width="18" height="100" rx="1" fill="#2a1e14" opacity="0.7"/>
  <rect x="221" y="570" width="14" height="110" rx="1" fill="#1e1810" opacity="0.6"/>
  <rect x="238" y="585" width="16" height="95" rx="1" fill="#2a2018" opacity="0.65"/>
  <rect x="257" y="575" width="12" height="105" rx="1" fill="#1a1510" opacity="0.7"/>
  <rect x="272" y="580" width="18" height="100" rx="1" fill="#241c14" opacity="0.6"/>
  <rect x="293" y="572" width="14" height="108" rx="1" fill="#201810" opacity="0.65"/>
  <rect x="310" y="588" width="16" height="92" rx="1" fill="#2a2018" opacity="0.55"/>
  <!-- Book spines - subtle color hints -->
  <rect x="200" y="580" width="3" height="100" rx="0.5" fill="#4a2020" opacity="0.4"/>
  <rect x="238" y="585" width="3" height="95" rx="0.5" fill="#204a20" opacity="0.3"/>
  <rect x="272" y="580" width="3" height="100" rx="0.5" fill="#20204a" opacity="0.35"/>

  <!-- Books on lower shelf behind left glass -->
  <rect x="195" y="690" width="145" height="3" fill="#4a3218" opacity="0.8"/>
  <rect x="200" y="695" width="20" height="60" rx="1" fill="#2a1e14" opacity="0.5"/>
  <rect x="222" y="700" width="15" height="55" rx="1" fill="#201810" opacity="0.5"/>
  <rect x="240" y="693" width="18" height="62" rx="1" fill="#241c14" opacity="0.5"/>
  <rect x="262" y="698" width="13" height="57" rx="1" fill="#1e1810" opacity="0.45"/>

  <!-- Right door -->
  <rect x="370" y="550" width="165" height="220" rx="3" fill="#4a3218" stroke="#5a3d22" stroke-width="2"/>
  <!-- Right glass panel -->
  <rect x="380" y="560" width="145" height="200" rx="2" fill="url(#glassPanelGrad)" stroke="#5a3d22" stroke-width="1"/>
  <!-- Glass reflection -->
  <path d="M385 565 L400 565 L385 610 Z" fill="#ffffff" opacity="0.06"/>

  <!-- Shadowy books behind right glass -->
  <rect x="385" y="575" width="15" height="105" rx="1" fill="#2a1e14" opacity="0.65"/>
  <rect x="403" y="582" width="18" height="98" rx="1" fill="#201810" opacity="0.6"/>
  <rect x="424" y="570" width="13" height="110" rx="1" fill="#241c14" opacity="0.7"/>
  <rect x="440" y="578" width="16" height="102" rx="1" fill="#1e1810" opacity="0.6"/>
  <rect x="459" y="585" width="14" height="95" rx="1" fill="#2a2018" opacity="0.55"/>
  <rect x="476" y="572" width="18" height="108" rx="1" fill="#201810" opacity="0.65"/>
  <rect x="497" y="580" width="14" height="100" rx="1" fill="#2a1e14" opacity="0.6"/>
  <!-- Book spines right side -->
  <rect x="403" y="582" width="3" height="98" rx="0.5" fill="#4a2040" opacity="0.35"/>
  <rect x="440" y="578" width="3" height="102" rx="0.5" fill="#40402a" opacity="0.3"/>

  <!-- Books on lower shelf behind right glass -->
  <rect x="380" y="690" width="145" height="3" fill="#4a3218" opacity="0.8"/>
  <rect x="385" y="695" width="16" height="60" rx="1" fill="#241c14" opacity="0.5"/>
  <rect x="404" y="700" width="20" height="55" rx="1" fill="#2a1e14" opacity="0.45"/>
  <rect x="427" y="693" width="14" height="62" rx="1" fill="#1e1810" opacity="0.5"/>

  <!-- Door divider strip -->
  <rect x="355" y="545" width="10" height="230" fill="#5a3d22" stroke="#4a3018" stroke-width="0.5"/>

  <!-- ====== PADLOCK ====== -->
  <!-- Padlock shackle -->
  <path d="M348 760 L348 745 Q348 728 360 728 Q372 728 372 745 L372 760"
        fill="none" stroke="#b89030" stroke-width="4" stroke-linecap="round"/>
  <!-- Padlock body -->
  <rect x="342" y="756" width="36" height="28" rx="3" fill="url(#padlockGrad)" stroke="#8a6820" stroke-width="1.5"/>
  <!-- Keyhole -->
  <circle cx="360" cy="768" r="4" fill="#3a2510"/>
  <rect x="358" y="770" width="4" height="8" rx="1" fill="#3a2510"/>
  <!-- LOCK-7 engraving -->
  <text x="360" y="764" text-anchor="middle" font-family="serif" font-size="6" fill="#6b5020" opacity="0.7" font-weight="bold">LOCK-7</text>
  <!-- Padlock highlight -->
  <rect x="345" y="758" width="12" height="2" rx="1" fill="#d4b860" opacity="0.3"/>

  <!-- ====== Lower section: Drawers ====== -->
  <!-- Drawer divider line -->
  <rect x="175" y="785" width="370" height="3" fill="#5a3d22"/>

  <!-- Top drawer -->
  <rect x="185" y="795" width="350" height="75" rx="2" fill="#5e3e22" stroke="#4a3018" stroke-width="1.5"/>
  <rect x="185" y="795" width="350" height="75" rx="2" fill="url(#woodGrain)" opacity="0.3"/>
  <!-- Top drawer panel inset -->
  <rect x="200" y="805" width="320" height="55" rx="2" fill="none" stroke="#4a3018" stroke-width="1" opacity="0.5"/>
  <!-- Top drawer brass handle -->
  <ellipse cx="360" cy="832" rx="22" ry="6" fill="none" stroke="url(#brassGrad)" stroke-width="3"/>
  <circle cx="338" cy="832" r="3" fill="#c8a040"/>
  <circle cx="382" cy="832" r="3" fill="#c8a040"/>

  <!-- Bottom drawer -->
  <rect x="185" y="880" width="350" height="75" rx="2" fill="#5e3e22" stroke="#4a3018" stroke-width="1.5"/>
  <rect x="185" y="880" width="350" height="75" rx="2" fill="url(#woodGrain)" opacity="0.3"/>
  <!-- Bottom drawer panel inset -->
  <rect x="200" y="890" width="320" height="55" rx="2" fill="none" stroke="#4a3018" stroke-width="1" opacity="0.5"/>
  <!-- Bottom drawer brass handle -->
  <ellipse cx="360" cy="917" rx="22" ry="6" fill="none" stroke="url(#brassGrad)" stroke-width="3"/>
  <circle cx="338" cy="917" r="3" fill="#c8a040"/>
  <circle cx="382" cy="917" r="3" fill="#c8a040"/>

  <!-- Cabinet base molding -->
  <rect x="165" y="955" width="390" height="14" rx="2" fill="#5a3d22" stroke="#4a3018" stroke-width="1"/>
  <!-- Cabinet feet -->
  <rect x="180" y="968" width="25" height="10" rx="3" fill="#4a3018"/>
  <rect x="515" y="968" width="25" height="10" rx="3" fill="#4a3018"/>

  <!-- ========== WALL SCONCES ========== -->
  <!-- Left sconce -->
  <circle cx="65" cy="620" r="70" fill="url(#sconceGlow)"/>
  <!-- Sconce bracket -->
  <rect x="55" y="610" width="20" height="35" rx="2" fill="#6b4a2a" stroke="#5a3d22" stroke-width="1"/>
  <rect x="50" y="608" width="30" height="5" rx="2" fill="#7a5a35"/>
  <!-- Sconce arm -->
  <path d="M65 615 Q75 600 65 585" stroke="#8b6830" stroke-width="3" fill="none"/>
  <!-- Candle -->
  <rect x="60" y="575" width="10" height="20" rx="1" fill="#e8dcc8"/>
  <!-- Flame -->
  <ellipse cx="65" cy="570" rx="5" ry="10" fill="url(#flameGrad)"/>
  <ellipse cx="65" cy="572" rx="2" ry="5" fill="#ffffee" opacity="0.8"/>

  <!-- Right sconce -->
  <circle cx="655" cy="620" r="70" fill="url(#sconceGlow)"/>
  <!-- Sconce bracket -->
  <rect x="645" y="610" width="20" height="35" rx="2" fill="#6b4a2a" stroke="#5a3d22" stroke-width="1"/>
  <rect x="640" y="608" width="30" height="5" rx="2" fill="#7a5a35"/>
  <!-- Sconce arm -->
  <path d="M655 615 Q645 600 655 585" stroke="#8b6830" stroke-width="3" fill="none"/>
  <!-- Candle -->
  <rect x="650" y="575" width="10" height="20" rx="1" fill="#e8dcc8"/>
  <!-- Flame -->
  <ellipse cx="655" cy="570" rx="5" ry="10" fill="url(#flameGrad)"/>
  <ellipse cx="655" cy="572" rx="2" ry="5" fill="#ffffee" opacity="0.8"/>

  <!-- ========== AMBIENT LIGHTING ========== -->
  <!-- Moonlight spill on wall and floor -->
  <rect x="0" y="0" width="720" height="1280" fill="url(#moonlightSpill)"/>

  <!-- Warm glow on wall from sconces -->
  <circle cx="65" cy="700" r="150" fill="#ffcc66" opacity="0.03"/>
  <circle cx="655" cy="700" r="150" fill="#ffcc66" opacity="0.03"/>

  <!-- Subtle vignette -->
  <rect x="0" y="0" width="720" height="1280" fill="none" stroke="#000000" stroke-width="80" opacity="0.15"/>

  <!-- ===== HOTSPOT MARKERS (for coordinate extraction) ===== -->
  <!-- window: [22, 3, 56, 34] -->
  <rect data-hotspot="window" x="158" y="38" width="403" height="435" fill="none" style="pointer-events: auto; cursor: pointer"/>

  <!-- cabinet: [23, 41, 54, 35] -->
  <rect data-hotspot="cabinet" x="166" y="525" width="389" height="448" fill="none" style="pointer-events: auto; cursor: pointer"/>

  <!-- cabinet-puzzle: [23, 41, 54, 35] -->
  <rect data-hotspot="cabinet-puzzle" x="166" y="525" width="389" height="448" fill="none" style="pointer-events: auto; cursor: pointer"/>

  <!-- cabinet-open: [23, 41, 54, 35] -->
  <rect data-hotspot="cabinet-open" x="166" y="525" width="389" height="448" fill="none" style="pointer-events: auto; cursor: pointer"/>

  <!-- curtain: [14, 3, 5, 35] -->
  <rect data-hotspot="curtain" x="101" y="38" width="36" height="448" fill="none" style="pointer-events: auto; cursor: pointer"/>
</svg>