<svg xmlns="http://www.w3.org/2000/svg" viewBox="0 0 720 1280">
  <defs>
    <!-- Wall gradient -->
    <linearGradient id="wallGrad" x1="0" y1="0" x2="0" y2="1">
      <stop offset="0%" stop-color="#3a2a1a"/>
      <stop offset="50%" stop-color="#4a3525"/>
      <stop offset="100%" stop-color="#3d2d1d"/>
    </linearGradient>

    <!-- Floor gradient -->
    <linearGradient id="floorGrad" x1="0" y1="0" x2="0" y2="1">
      <stop offset="0%" stop-color="#3a2818"/>
      <stop offset="100%" stop-color="#1e1208"/>
    </linearGradient>

    <!-- Night sky gradient -->
    <linearGradient id="skyGrad" x1="0" y1="0" x2="0" y2="1">
      <stop offset="0%" stop-color="#0a0e1a"/>
      <stop offset="40%" stop-color="#111833"/>
      <stop offset="100%" stop-color="#1a2244"/>
    </linearGradient>

    <!-- Curtain gradient left -->
    <linearGradient id="curtainL" x1="0" y1="0" x2="1" y2="0">
      <stop offset="0%" stop-color="#6b1a1a"/>
      <stop offset="40%" stop-color="#8b2a2a"/>
      <stop offset="70%" stop-color="#7a2222"/>
      <stop offset="100%" stop-color="#4a1010"/>
    </linearGradient>

    <!-- Curtain gradient right -->
    <linearGradient id="curtainR" x1="1" y1="0" x2="0" y2="0">
      <stop offset="0%" stop-color="#6b1a1a"/>
      <stop offset="40%" stop-color="#8b2a2a"/>
      <stop offset="70%" stop-color="#7a2222"/>
      <stop offset="100%" stop-color="#4a1010"/>
    </linearGradient>

    <!-- Moon glow -->
    <radialGradient id="moonGlow" cx="0.5" cy="0.5" r="0.5">
      <stop offset="0%" stop-color="#e8eeff" stop-opacity="1"/>
      <stop offset="60%" stop-color="#c0ccee" stop-opacity="0.4"/>
      <stop offset="100%" stop-color="#8899cc" stop-opacity="0"/>
    </radialGradient>

    <!-- Moonlight spill into room -->
    <radialGradient id="moonlightSpill" cx="0.5" cy="0.3" r="0.7">
      <stop offset="0%" stop-color="#aabbdd" stop-opacity="0.12"/>
      <stop offset="60%" stop-color="#6677aa" stop-opacity="0.04"/>
      <stop offset="100%" stop-color="#334466" stop-opacity="0"/>
    </radialGradient>

    <!-- Cabinet wood gradient -->
    <linearGradient id="cabinetWood" x1="0" y1="0" x2="0" y2="1">
      <stop offset="0%" stop-color="#5a3d20"/>
      <stop offset="30%" stop-color="#6b4a2a"/>
      <stop offset="70%" stop-color="#5e3e22"/>
      <stop offset="100%" stop-color="#4a3018"/>
    </linearGradient>

    <!-- Glass panel gradient -->
    <linearGradient id="glassPanelGrad" x1="0" y1="0" x2="0.3" y2="1">
      <stop offset="0%" stop-color="#2a3040" stop-opacity="0.7"/>
      <stop offset="50%" stop-color="#1e2535" stop-opacity="0.85"/>
      <stop offset="100%" stop-color="#151c28" stop-opacity="0.9"/>
    </linearGradient>

    <!-- Sconce glow -->
    <radialGradient id="sconceGlow" cx="0.5" cy="0.3" r="0.6">
      <stop offset="0%" stop-color="#ffdd88" stop-opacity="0.5"/>
      <stop offset="50%" stop-color="#ffcc66" stop-opacity="0.15"/>
      <stop offset="100%" stop-color="#ffaa33" stop-opacity="0"/>
    </radialGradient>

    <!-- Flame gradient -->
    <radialGradient id="flameGrad" cx="0.5" cy="0.7" r="0.5">
      <stop offset="0%" stop-color="#ffffcc"/>
      <stop offset="40%" stop-color="#ffdd66"/>
      <stop offset="100%" stop-color="#ff8800" stop-opacity="0.6"/>
    </radialGradient>

    <!-- Rug gradient -->
    <radialGradient id="rugGrad" cx="0.5" cy="0.5" r="0.5">
      <stop offset="0%" stop-color="#8b3030"/>
      <stop offset="60%" stop-color="#6b2222"/>
      <stop offset="85%" stop-color="#5a1a1a"/>
      <stop offset="100%" stop-color="#4a1212"/>
    </radialGradient>

    <!-- Rug border pattern -->
    <pattern id="rugBorder" width="20" height="20" patternUnits="userSpaceOnUse">
      <rect width="20" height="20" fill="none"/>
      <path d="M0 10 L5 5 L10 10 L5 15Z" fill="#c8942a" opacity="0.5"/>
      <path d="M10 10 L15 5 L20 10 L15 15Z" fill="#c8942a" opacity="0.3"/>
    </pattern>

    <!-- Wallpaper texture -->
    <pattern id="wallTex" width="40" height="40" patternUnits="userSpaceOnUse">
      <rect width="40" height="40" fill="none"/>
      <path d="M20 0 Q23 10 20 20 Q17 10 20 0Z" fill="#5a4030" opacity="0.15"/>
      <circle cx="20" cy="20" r="1.5" fill="#5a4030" opacity="0.1"/>
    </pattern>

    <!-- Broken padlock gradient -->
    <linearGradient id="padlockGrad" x1="0" y1="0" x2="0" y2="1">
      <stop offset="0%" stop-color="#a08030"/>
      <stop offset="50%" stop-color="#887020"/>
      <stop offset="100%" stop-color="#706018"/>
    </linearGradient>

    <!-- Brass handle gradient -->
    <linearGradient id="brassGrad" x1="0" y1="0" x2="0" y2="1">
      <stop offset="0%" stop-color="#d4a840"/>
      <stop offset="50%" stop-color="#b89030"/>
      <stop offset="100%" stop-color="#9a7820"/>
    </linearGradient>

    <!-- Treeline silhouette -->
    <linearGradient id="treeGrad" x1="0" y1="0" x2="0" y2="1">
      <stop offset="0%" stop-color="#0a1520"/>
      <stop offset="100%" stop-color="#061018"/>
    </linearGradient>

    <!-- Wood grain overlay -->
    <pattern id="woodGrain" width="8" height="80" patternUnits="userSpaceOnUse">
      <rect width="8" height="80" fill="none"/>
      <path d="M0 0 Q4 20 0 40 Q4 60 0 80" stroke="#5a3820" stroke-width="0.5" fill="none" opacity="0.3"/>
      <path d="M4 0 Q8 20 4 40 Q8 60 4 80" stroke="#5a3820" stroke-width="0.3" fill="none" opacity="0.2"/>
    </pattern>

    <!-- Blue notebook glow -->
    <radialGradient id="notebookGlow" cx="0.5" cy="0.5" r="0.6">
      <stop offset="0%" stop-color="#6699ff" stop-opacity="0.6"/>
      <stop offset="50%" stop-color="#4477dd" stop-opacity="0.25"/>
      <stop offset="100%" stop-color="#2255aa" stop-opacity="0"/>
    </radialGradient>

    <!-- Golden dust particle glow -->
    <radialGradient id="dustGlow" cx="0.5" cy="0.5" r="0.5">
      <stop offset="0%" stop-color="#ffd700" stop-opacity="0.9"/>
      <stop offset="60%" stop-color="#ffaa00" stop-opacity="0.4"/>
      <stop offset="100%" stop-color="#ff8800" stop-opacity="0"/>
    </radialGradient>

    <!-- Open door interior gradient -->
    <linearGradient id="openInterior" x1="0" y1="0" x2="0" y2="1">
      <stop offset="0%" stop-color="#3a2818"/>
      <stop offset="100%" stop-color="#2a1c10"/>
    </linearGradient>

    <!-- Key gradient -->
    <linearGradient id="keyGrad" x1="0" y1="0" x2="1" y2="0">
      <stop offset="0%" stop-color="#d4b050"/>
      <stop offset="50%" stop-color="#c8a040"/>
      <stop offset="100%" stop-color="#aa8830"/>
    </linearGradient>
  </defs>

  <!-- ========== WALL ========== -->
  <rect width="720" height="1280" fill="url(#wallGrad)"/>
  <rect width="720" height="1280" fill="url(#wallTex)"/>

  <!-- Wainscoting / lower wall panel -->
  <rect x="0" y="900" width="720" height="100" fill="#3a2818" opacity="0.5"/>
  <line x1="0" y1="900" x2="720" y2="900" stroke="#5a4020" stroke-width="2" opacity="0.6"/>
  <line x1="0" y1="1000" x2="720" y2="1000" stroke="#5a4020" stroke-width="1.5" opacity="0.4"/>

  <!-- ========== FLOOR ========== -->
  <rect x="0" y="1000" width="720" height="280" fill="url(#floorGrad)"/>
  <line x1="0" y1="1040" x2="720" y2="1040" stroke="#2a1a0e" stroke-width="1" opacity="0.3"/>
  <line x1="0" y1="1090" x2="720" y2="1090" stroke="#2a1a0e" stroke-width="1" opacity="0.3"/>
  <line x1="0" y1="1140" x2="720" y2="1140" stroke="#2a1a0e" stroke-width="1" opacity="0.25"/>
  <line x1="0" y1="1190" x2="720" y2="1190" stroke="#2a1a0e" stroke-width="1" opacity="0.2"/>
  <line x1="0" y1="1240" x2="720" y2="1240" stroke="#2a1a0e" stroke-width="1" opacity="0.15"/>

  <!-- ========== RUG ========== -->
  <ellipse cx="360" cy="1140" rx="250" ry="100" fill="url(#rugGrad)"/>
  <ellipse cx="360" cy="1140" rx="250" ry="100" fill="url(#rugBorder)" opacity="0.4"/>
  <ellipse cx="360" cy="1140" rx="220" ry="85" fill="none" stroke="#c8942a" stroke-width="1.5" opacity="0.3"/>
  <ellipse cx="360" cy="1140" rx="200" ry="75" fill="none" stroke="#c8942a" stroke-width="0.8" opacity="0.2"/>
  <path d="M340 1140 L360 1120 L380 1140 L360 1160Z" fill="#c8942a" opacity="0.2"/>
  <circle cx="360" cy="1140" r="12" fill="none" stroke="#c8942a" stroke-width="1" opacity="0.25"/>

  <!-- ========== WINDOW FRAME ========== -->
  <rect x="160" y="50" width="400" height="420" rx="8" fill="#2a1c10"/>
  <rect x="170" y="55" width="380" height="410" rx="5" fill="#5a3d22" stroke="#6b4a2a" stroke-width="3"/>

  <!-- Night sky -->
  <rect x="185" y="68" width="350" height="384" rx="3" fill="url(#skyGrad)"/>

  <!-- Stars -->
  <circle cx="220" cy="100" r="1.2" fill="#ffffff" opacity="0.9"/>
  <circle cx="280" cy="85" r="0.8" fill="#ffffff" opacity="0.7"/>
  <circle cx="340" cy="110" r="1" fill="#ffffff" opacity="0.8"/>
  <circle cx="420" cy="90" r="1.3" fill="#ffffff" opacity="0.9"/>
  <circle cx="460" cy="130" r="0.7" fill="#ffffff" opacity="0.6"/>
  <circle cx="250" cy="150" r="0.9" fill="#ffffff" opacity="0.7"/>
  <circle cx="380" cy="160" r="1.1" fill="#ffffff" opacity="0.8"/>
  <circle cx="490" cy="100" r="0.8" fill="#ffffff" opacity="0.65"/>
  <circle cx="310" cy="200" r="0.6" fill="#ffffff" opacity="0.5"/>
  <circle cx="200" cy="180" r="1" fill="#ffffff" opacity="0.7"/>
  <circle cx="450" cy="180" r="0.9" fill="#ffffff" opacity="0.6"/>
  <circle cx="500" cy="160" r="1.2" fill="#ffffff" opacity="0.75"/>
  <circle cx="230" cy="230" r="0.7" fill="#ffffff" opacity="0.55"/>
  <circle cx="470" cy="220" r="0.8" fill="#ffffff" opacity="0.5"/>
  <circle cx="360" cy="250" r="0.6" fill="#ffffff" opacity="0.45"/>

  <!-- Crescent moon -->
  <circle cx="420" cy="150" r="50" fill="url(#moonGlow)"/>
  <circle cx="420" cy="150" r="22" fill="#e8eeff"/>
  <circle cx="430" cy="142" r="18" fill="url(#skyGrad)"/>
  <circle cx="412" cy="145" r="3" fill="#ffffff" opacity="0.3"/>

  <!-- Distant treeline -->
  <path d="M185 400 L185 370 L200 340 L210 365 L225 330 L240 360 L250 325 L265 355
           L275 320 L290 350 L300 315 L315 345 L325 310 L340 340 L350 305 L365 335
           L375 300 L390 335 L400 310 L415 340 L425 320 L440 350 L450 330 L465 355
           L475 340 L490 365 L500 345 L515 370 L525 355 L535 400 Z"
        fill="url(#treeGrad)"/>
  <path d="M185 400 L190 380 L205 350 L215 375 L230 345 L245 370 L255 335 L270 365
           L535 400 Z" fill="#081420" opacity="0.5"/>

  <!-- Window mullions -->
  <rect x="355" y="68" width="6" height="384" fill="#5a3d22"/>
  <rect x="185" y="260" width="350" height="5" fill="#5a3d22"/>
  <rect x="185" y="68" width="350" height="2" fill="#6b4a2a" opacity="0.6"/>
  <rect x="185" y="68" width="2" height="384" fill="#6b4a2a" opacity="0.4"/>
  <rect x="533" y="68" width="2" height="384" fill="#3a2510" opacity="0.6"/>
  <rect x="185" y="450" width="350" height="2" fill="#3a2510" opacity="0.6"/>

  <!-- Window sill -->
  <rect x="155" y="455" width="410" height="18" rx="2" fill="#5a3d22" stroke="#4a3018" stroke-width="1"/>
  <rect x="155" y="455" width="410" height="4" fill="#6b4a2a" opacity="0.5"/>

  <!-- ========== CURTAINS ========== -->
  <!-- Left curtain -->
  <path d="M100 40 Q115 40 130 42 L130 490 Q120 488 110 490 Q105 490 100 488 Z"
        fill="url(#curtainL)"/>
  <path d="M108 40 Q112 250 108 490" stroke="#4a1010" stroke-width="1.5" fill="none" opacity="0.5"/>
  <path d="M118 42 Q122 250 118 490" stroke="#9a3030" stroke-width="1" fill="none" opacity="0.3"/>
  <path d="M126 42 Q128 250 126 490" stroke="#4a1010" stroke-width="1" fill="none" opacity="0.4"/>

  <!-- Right curtain -->
  <path d="M590 42 Q605 40 620 40 L620 488 Q615 490 610 490 Q600 488 590 490 Z"
        fill="url(#curtainR)"/>
  <path d="M594 42 Q592 250 594 490" stroke="#4a1010" stroke-width="1" fill="none" opacity="0.4"/>
  <path d="M604 42 Q608 250 604 490" stroke="#9a3030" stroke-width="1" fill="none" opacity="0.3"/>
  <path d="M614 40 Q612 250 614 488" stroke="#4a1010" stroke-width="1.5" fill="none" opacity="0.5"/>

  <!-- Curtain rod -->
  <rect x="90" y="35" width="540" height="8" rx="4" fill="#6b4a2a" stroke="#5a3d22" stroke-width="1"/>
  <circle cx="95" cy="39" r="8" fill="#8b6830" stroke="#6b4a2a" stroke-width="1"/>
  <circle cx="625" cy="39" r="8" fill="#8b6830" stroke="#6b4a2a" stroke-width="1"/>

  <!-- Gold tie-backs left -->
  <path d="M128 260 Q155 255 160 265 Q155 275 128 270" fill="none" stroke="#c8a040" stroke-width="3"/>
  <circle cx="160" cy="265" r="5" fill="#d4b050" stroke="#aa8830" stroke-width="1"/>
  <path d="M155 260 L165 250 M155 265 L168 265 M155 270 L165 280" stroke="#c8a040" stroke-width="1.5" fill="none"/>

  <!-- Gold tie-backs right -->
  <path d="M592 260 Q565 255 560 265 Q565 275 592 270" fill="none" stroke="#c8a040" stroke-width="3"/>
  <circle cx="560" cy="265" r="5" fill="#d4b050" stroke="#aa8830" stroke-width="1"/>
  <path d="M565 260 L555 250 M565 265 L552 265 M565 270 L555 280" stroke="#c8a040" stroke-width="1.5" fill="none"/>

  <!-- ========== CABINET (OPEN / SOLVED) ========== -->
  <!-- Cabinet body -->
  <rect x="170" y="530" width="380" height="430" rx="4" fill="url(#cabinetWood)" stroke="#3a2510" stroke-width="2"/>
  <rect x="170" y="530" width="380" height="430" rx="4" fill="url(#woodGrain)" opacity="0.4"/>

  <!-- Cabinet top molding -->
  <rect x="165" y="525" width="390" height="12" rx="2" fill="#6b4a2a" stroke="#5a3d22" stroke-width="1"/>
  <rect x="165" y="525" width="390" height="3" fill="#7a5a35" opacity="0.5"/>
  <rect x="168" y="536" width="384" height="3" fill="#7a5a35" opacity="0.3"/>

  <!-- ====== Upper section: OPEN cabinet interior ====== -->
  <!-- Interior background -->
  <rect x="185" y="550" width="350" height="220" rx="2" fill="url(#openInterior)"/>
  <!-- Interior shelves -->
  <rect x="185" y="690" width="350" height="4" fill="#4a3218"/>
  <rect x="185" y="625" width="350" height="3" fill="#4a3218" opacity="0.7"/>

  <!-- ====== Books visible inside (top shelf) ====== -->
  <rect x="195" y="558" width="20" height="64" rx="1" fill="#5a2020"/>
  <rect x="218" y="553" width="16" height="69" rx="1" fill="#3a5a2a"/>
  <rect x="237" y="560" width="18" height="62" rx="1" fill="#4a3060"/>
  <rect x="258" y="555" width="14" height="67" rx="1" fill="#6a4020"/>
  <rect x="275" y="558" width="20" height="64" rx="1" fill="#2a4a5a"/>
  <rect x="298" y="553" width="15" height="69" rx="1" fill="#5a3030"/>
  <rect x="316" y="560" width="18" height="62" rx="1" fill="#3a4a2a"/>
  <!-- Book spine details top shelf -->
  <rect x="197" y="562" width="16" height="2" rx="0.5" fill="#8a4040" opacity="0.6"/>
  <rect x="220" y="558" width="12" height="1.5" rx="0.5" fill="#5a8a4a" opacity="0.5"/>
  <text x="267" y="595" font-family="serif" font-size="5" fill="#aa8050" transform="rotate(-90,267,595)" opacity="0.6">HIST</text>

  <!-- Middle shelf books -->
  <rect x="195" y="630" width="18" height="57" rx="1" fill="#4a2040"/>
  <rect x="216" y="633" width="22" height="54" rx="1" fill="#2a3a1a"/>
  <rect x="241" y="628" width="15" height="59" rx="1" fill="#5a4030"/>
  <rect x="259" y="632" width="18" height="55" rx="1" fill="#2a2a5a"/>
  <rect x="280" y="630" width="14" height="57" rx="1" fill="#5a2a2a"/>

  <!-- ====== GLOWING BLUE NOTEBOOK (key item) ====== -->
  <circle cx="330" cy="660" r="45" fill="url(#notebookGlow)"/>
  <rect x="310" y="640" width="40" height="48" rx="2" fill="#3366aa" stroke="#4488cc" stroke-width="1.5"/>
  <rect x="310" y="640" width="40" height="8" rx="2" fill="#4488cc"/>
  <!-- Notebook lines -->
  <line x1="315" y1="655" x2="345" y2="655" stroke="#6699cc" stroke-width="0.8" opacity="0.6"/>
  <line x1="315" y1="662" x2="345" y2="662" stroke="#6699cc" stroke-width="0.8" opacity="0.5"/>
  <line x1="315" y1="669" x2="345" y2="669" stroke="#6699cc" stroke-width="0.8" opacity="0.4"/>
  <line x1="315" y1="676" x2="340" y2="676" stroke="#6699cc" stroke-width="0.8" opacity="0.35"/>
  <!-- Notebook glow pulse -->
  <circle cx="330" cy="660" r="30" fill="none" stroke="#6699ff" stroke-width="1" opacity="0.3">
    <animate attributeName="r" values="28;35;28" dur="3s" repeatCount="indefinite"/>
    <animate attributeName="opacity" values="0.3;0.1;0.3" dur="3s" repeatCount="indefinite"/>
  </circle>

  <!-- Papers scattered near notebook -->
  <rect x="355" y="645" width="30" height="40" rx="1" fill="#e8dcc0" transform="rotate(8,370,665)" opacity="0.8"/>
  <rect x="360" y="650" width="28" height="38" rx="1" fill="#e0d4b8" transform="rotate(-5,374,669)" opacity="0.7"/>
  <!-- Paper text hints -->
  <line x1="362" y1="658" x2="382" y2="658" stroke="#8a7a60" stroke-width="0.5" opacity="0.5" transform="rotate(8,370,665)"/>
  <line x1="362" y1="664" x2="380" y2="664" stroke="#8a7a60" stroke-width="0.5" opacity="0.4" transform="rotate(8,370,665)"/>

  <!-- Bottom shelf books -->
  <rect x="195" y="697" width="22" height="62" rx="1" fill="#5a3020"/>
  <rect x="220" y="700" width="16" height="59" rx="1" fill="#2a5a3a"/>
  <rect x="239" y="695" width="20" height="64" rx="1" fill="#4a2a50"/>
  <rect x="262" y="698" width="15" height="61" rx="1" fill="#3a4a2a"/>
  <rect x="280" y="700" width="18" height="59" rx="1" fill="#5a4a20"/>

  <!-- ====== OPEN DOORS (swung outward) ====== -->
  <!-- Left door open (perspective, swung left) -->
  <path d="M185 550 L160 555 L160 775 L185 770" fill="#4a3218" stroke="#5a3d22" stroke-width="1.5"/>
  <!-- Left door glass panel (angled) -->
  <path d="M183 560 L163 564 L163 758 L183 754" fill="url(#glassPanelGrad)" opacity="0.5" stroke="#5a3d22" stroke-width="0.5"/>
  <!-- Door edge highlight -->
  <line x1="185" y1="550" x2="185" y2="770" stroke="#6b4a2a" stroke-width="1" opacity="0.5"/>
  <!-- Left hinge -->
  <circle cx="185" cy="580" r="3" fill="#8b6830"/>
  <circle cx="185" cy="720" r="3" fill="#8b6830"/>

  <!-- Right door open (perspective, swung right) -->
  <path d="M535 550 L560 555 L560 775 L535 770" fill="#4a3218" stroke="#5a3d22" stroke-width="1.5"/>
  <!-- Right door glass panel (angled) -->
  <path d="M537 560 L557 564 L557 758 L537 754" fill="url(#glassPanelGrad)" opacity="0.5" stroke="#5a3d22" stroke-width="0.5"/>
  <!-- Door edge highlight -->
  <line x1="535" y1="550" x2="535" y2="770" stroke="#6b4a2a" stroke-width="1" opacity="0.5"/>
  <!-- Right hinge -->
  <circle cx="535" cy="580" r="3" fill="#8b6830"/>
  <circle cx="535" cy="720" r="3" fill="#8b6830"/>

  <!-- ====== BROKEN PADLOCK with key inserted ====== -->
  <!-- Broken shackle (one side popped open) -->
  <path d="M348 760 L348 748 Q348 732 360 732" fill="none" stroke="#907030" stroke-width="3.5" stroke-linecap="round"/>
  <path d="M372 760 L372 750" fill="none" stroke="#907030" stroke-width="3.5" stroke-linecap="round"/>
  <!-- Tilted shackle arm (broken open) -->
  <path d="M360 732 Q368 730 372 740" fill="none" stroke="#907030" stroke-width="3.5" stroke-linecap="round" opacity="0.8"/>

  <!-- Padlock body (slightly tilted, damaged look) -->
  <rect x="342" y="756" width="36" height="28" rx="3" fill="url(#padlockGrad)" stroke="#706018" stroke-width="1.5" transform="rotate(5,360,770)"/>
  <!-- Scratch marks on padlock -->
  <line x1="348" y1="762" x2="358" y2="760" stroke="#504010" stroke-width="0.5" opacity="0.5"/>
  <line x1="365" y1="765" x2="373" y2="762" stroke="#504010" stroke-width="0.5" opacity="0.4"/>
  <!-- LOCK-7 engraving (faded) -->
  <text x="362" y="766" text-anchor="middle" font-family="serif" font-size="6" fill="#5a4818" opacity="0.5" font-weight="bold" transform="rotate(5,362,766)">LOCK-7</text>

  <!-- Key inserted in keyhole -->
  <circle cx="362" cy="772" r="4" fill="#3a2510" transform="rotate(5,362,772)"/>
  <!-- Key body sticking out -->
  <rect x="362" y="768" width="28" height="4" rx="1" fill="url(#keyGrad)" transform="rotate(25,362,770)"/>
  <!-- Key bow (handle) -->
  <circle cx="390" cy="758" r="7" fill="none" stroke="#c8a040" stroke-width="2.5"/>
  <circle cx="390" cy="758" r="3" fill="#d4b050"/>
  <!-- Key teeth -->
  <path d="M365 773 L367 777 L370 773 L372 778 L375 773" stroke="#aa8830" stroke-width="1" fill="none" transform="rotate(25,362,770)"/>

  <!-- ====== Lower section: Drawers ====== -->
  <rect x="175" y="785" width="370" height="3" fill="#5a3d22"/>

  <!-- Top drawer -->
  <rect x="185" y="795" width="350" height="75" rx="2" fill="#5e3e22" stroke="#4a3018" stroke-width="1.5"/>
  <rect x="185" y="795" width="350" height="75" rx="2" fill="url(#woodGrain)" opacity="0.3"/>
  <rect x="200" y="805" width="320" height="55" rx="2" fill="none" stroke="#4a3018" stroke-width="1" opacity="0.5"/>
  <ellipse cx="360" cy="832" rx="22" ry="6" fill="none" stroke="url(#brassGrad)" stroke-width="3"/>
  <circle cx="338" cy="832" r="3" fill="#c8a040"/>
  <circle cx="382" cy="832" r="3" fill="#c8a040"/>

  <!-- Bottom drawer -->
  <rect x="185" y="880" width="350" height="75" rx="2" fill="#5e3e22" stroke="#4a3018" stroke-width="1.5"/>
  <rect x="185" y="880" width="350" height="75" rx="2" fill="url(#woodGrain)" opacity="0.3"/>
  <rect x="200" y="890" width="320" height="55" rx="2" fill="none" stroke="#4a3018" stroke-width="1" opacity="0.5"/>
  <ellipse cx="360" cy="917" rx="22" ry="6" fill="none" stroke="url(#brassGrad)" stroke-width="3"/>
  <circle cx="338" cy="917" r="3" fill="#c8a040"/>
  <circle cx="382" cy="917" r="3" fill="#c8a040"/>

  <!-- Cabinet base molding -->
  <rect x="165" y="955" width="390" height="14" rx="2" fill="#5a3d22" stroke="#4a3018" stroke-width="1"/>
  <rect x="180" y="968" width="25" height="10" rx="3" fill="#4a3018"/>
  <rect x="515" y="968" width="25" height="10" rx="3" fill="#4a3018"/>

  <!-- ========== WALL SCONCES ========== -->
  <!-- Left sconce -->
  <circle cx="65" cy="620" r="70" fill="url(#sconceGlow)"/>
  <rect x="55" y="610" width="20" height="35" rx="2" fill="#6b4a2a" stroke="#5a3d22" stroke-width="1"/>
  <rect x="50" y="608" width="30" height="5" rx="2" fill="#7a5a35"/>
  <path d="M65 615 Q75 600 65 585" stroke="#8b6830" stroke-width="3" fill="none"/>
  <rect x="60" y="575" width="10" height="20" rx="1" fill="#e8dcc8"/>
  <ellipse cx="65" cy="570" rx="5" ry="10" fill="url(#flameGrad)"/>
  <ellipse cx="65" cy="572" rx="2" ry="5" fill="#ffffee" opacity="0.8"/>

  <!-- Right sconce -->
  <circle cx="655" cy="620" r="70" fill="url(#sconceGlow)"/>
  <rect x="645" y="610" width="20" height="35" rx="2" fill="#6b4a2a" stroke="#5a3d22" stroke-width="1"/>
  <rect x="640" y="608" width="30" height="5" rx="2" fill="#7a5a35"/>
  <path d="M655 615 Q645 600 655 585" stroke="#8b6830" stroke-width="3" fill="none"/>
  <rect x="650" y="575" width="10" height="20" rx="1" fill="#e8dcc8"/>
  <ellipse cx="655" cy="570" rx="5" ry="10" fill="url(#flameGrad)"/>
  <ellipse cx="655" cy="572" rx="2" ry="5" fill="#ffffee" opacity="0.8"/>

  <!-- ========== GOLDEN DUST PARTICLES ========== -->
  <!-- Large particles -->
  <circle cx="280" cy="590" r="2.5" fill="url(#dustGlow)">
    <animate attributeName="cy" values="590;580;590" dur="4s" repeatCount="indefinite"/>
    <animate attributeName="opacity" values="0.8;0.4;0.8" dur="4s" repeatCount="indefinite"/>
  </circle>
  <circle cx="420" cy="610" r="2" fill="url(#dustGlow)">
    <animate attributeName="cy" values="610;595;610" dur="3.5s" repeatCount="indefinite"/>
    <animate attributeName="opacity" values="0.7;0.3;0.7" dur="3.5s" repeatCount="indefinite"/>
  </circle>
  <circle cx="340" cy="570" r="1.8" fill="url(#dustGlow)">
    <animate attributeName="cy" values="570;558;570" dur="5s" repeatCount="indefinite"/>
    <animate attributeName="opacity" values="0.6;0.2;0.6" dur="5s" repeatCount="indefinite"/>
  </circle>
  <circle cx="480" cy="640" r="2.2" fill="url(#dustGlow)">
    <animate attributeName="cy" values="640;625;640" dur="4.2s" repeatCount="indefinite"/>
    <animate attributeName="opacity" values="0.75;0.35;0.75" dur="4.2s" repeatCount="indefinite"/>
  </circle>
  <circle cx="220" cy="650" r="1.5" fill="url(#dustGlow)">
    <animate attributeName="cy" values="650;640;650" dur="3.8s" repeatCount="indefinite"/>
    <animate attributeName="opacity" values="0.5;0.2;0.5" dur="3.8s" repeatCount="indefinite"/>
  </circle>

  <!-- Medium particles -->
  <circle cx="310" cy="700" r="1.5" fill="#ffd700" opacity="0.5">
    <animate attributeName="cy" values="700;688;700" dur="3s" repeatCount="indefinite"/>
    <animate attributeName="opacity" values="0.5;0.15;0.5" dur="3s" repeatCount="indefinite"/>
  </circle>
  <circle cx="400" cy="560" r="1.2" fill="#ffd700" opacity="0.6">
    <animate attributeName="cy" values="560;548;560" dur="4.5s" repeatCount="indefinite"/>
    <animate attributeName="opacity" values="0.6;0.2;0.6" dur="4.5s" repeatCount="indefinite"/>
  </circle>
  <circle cx="250" cy="720" r="1.3" fill="#ffd700" opacity="0.4">
    <animate attributeName="cy" values="720;710;720" dur="3.2s" repeatCount="indefinite"/>
    <animate attributeName="opacity" values="0.4;0.1;0.4" dur="3.2s" repeatCount="indefinite"/>
  </circle>
  <circle cx="460" cy="580" r="1" fill="#ffd700" opacity="0.55">
    <animate attributeName="cy" values="580;570;580" dur="4.8s" repeatCount="indefinite"/>
    <animate attributeName="opacity" values="0.55;0.2;0.55" dur="4.8s" repeatCount="indefinite"/>
  </circle>

  <!-- Small particles (subtle) -->
  <circle cx="360" cy="540" r="0.8" fill="#ffd700" opacity="0.4">
    <animate attributeName="cy" values="540;530;540" dur="2.8s" repeatCount="indefinite"/>
  </circle>
  <circle cx="300" cy="750" r="0.7" fill="#ffd700" opacity="0.3">
    <animate attributeName="cy" values="750;742;750" dur="3.5s" repeatCount="indefinite"/>
  </circle>
  <circle cx="440" cy="690" r="0.9" fill="#ffd700" opacity="0.35">
    <animate attributeName="cy" values="690;680;690" dur="4s" repeatCount="indefinite"/>
  </circle>
  <circle cx="200" cy="600" r="0.6" fill="#ffd700" opacity="0.3">
    <animate attributeName="cy" values="600;592;600" dur="3.3s" repeatCount="indefinite"/>
  </circle>
  <circle cx="500" cy="660" r="0.8" fill="#ffd700" opacity="0.35">
    <animate attributeName="cy" values="660;650;660" dur="4.6s" repeatCount="indefinite"/>
  </circle>

  <!-- ========== AMBIENT LIGHTING ========== -->
  <rect x="0" y="0" width="720" height="1280" fill="url(#moonlightSpill)"/>
  <circle cx="65" cy="700" r="150" fill="#ffcc66" opacity="0.03"/>
  <circle cx="655" cy="700" r="150" fill="#ffcc66" opacity="0.03"/>

  <!-- Warm golden ambient from the glowing notebook -->
  <circle cx="330" cy="660" r="200" fill="#6699ff" opacity="0.02"/>

  <!-- Subtle vignette -->
  <rect x="0" y="0" width="720" height="1280" fill="none" stroke="#000000" stroke-width="80" opacity="0.15"/>
</svg>