<svg xmlns="http://www.w3.org/2000/svg" viewBox="0 0 720 1280">
  <defs>
    <!-- Wall pattern -->
    <pattern id="wallpaper" width="60" height="60" patternUnits="userSpaceOnUse">
      <rect width="60" height="60" fill="#5a4535"/>
      <path d="M30 0 Q35 15 30 30 Q25 15 30 0Z" fill="#6b5545" opacity="0.3"/>
      <path d="M0 30 Q15 35 30 30 Q15 25 0 30Z" fill="#6b5545" opacity="0.2"/>
      <circle cx="30" cy="30" r="2" fill="#6b5545" opacity="0.15"/>
    </pattern>

    <!-- Floor checkered pattern -->
    <pattern id="floor" width="80" height="80" patternUnits="userSpaceOnUse">
      <rect width="80" height="80" fill="#3a2a1a"/>
      <rect width="40" height="40" fill="#2e2218"/>
      <rect x="40" y="40" width="40" height="40" fill="#2e2218"/>
    </pattern>

    <!-- Wood grain for desk -->
    <pattern id="woodGrain" width="200" height="20" patternUnits="userSpaceOnUse">
      <rect width="200" height="20" fill="#6b4a2e"/>
      <path d="M0 5 Q50 3 100 6 Q150 4 200 5" stroke="#7d5a3a" stroke-width="1" fill="none" opacity="0.5"/>
      <path d="M0 12 Q40 10 80 13 Q140 11 200 12" stroke="#5c3a1e" stroke-width="0.8" fill="none" opacity="0.4"/>
      <path d="M0 18 Q60 16 120 19 Q180 17 200 18" stroke="#7d5a3a" stroke-width="0.6" fill="none" opacity="0.3"/>
    </pattern>

    <!-- Bookshelf wood -->
    <linearGradient id="shelfWood" x1="0%" y1="0%" x2="100%" y2="0%">
      <stop offset="0%" stop-color="#5c3d1e"/>
      <stop offset="50%" stop-color="#7a5230"/>
      <stop offset="100%" stop-color="#5c3d1e"/>
    </linearGradient>

    <!-- Lamp glow -->
    <radialGradient id="lampGlow" cx="50%" cy="0%" r="80%">
      <stop offset="0%" stop-color="#ffd080" stop-opacity="0.45"/>
      <stop offset="40%" stop-color="#ffb040" stop-opacity="0.2"/>
      <stop offset="100%" stop-color="#ffa020" stop-opacity="0"/>
    </radialGradient>

    <!-- Lamp cone light -->
    <linearGradient id="lampCone" x1="50%" y1="0%" x2="50%" y2="100%">
      <stop offset="0%" stop-color="#ffe8a0" stop-opacity="0.6"/>
      <stop offset="100%" stop-color="#ffd060" stop-opacity="0"/>
    </linearGradient>

    <!-- Vignette -->
    <radialGradient id="vignette" cx="50%" cy="45%">
      <stop offset="30%" stop-color="transparent"/>
      <stop offset="100%" stop-color="#0a0705" stop-opacity="0.7"/>
    </radialGradient>

    <!-- Gold frame gradient -->
    <linearGradient id="goldFrame" x1="0%" y1="0%" x2="100%" y2="100%">
      <stop offset="0%" stop-color="#d4a040"/>
      <stop offset="30%" stop-color="#f0d070"/>
      <stop offset="70%" stop-color="#c89830"/>
      <stop offset="100%" stop-color="#a07820"/>
    </linearGradient>

    <!-- Candle flame -->
    <radialGradient id="candleFlame" cx="50%" cy="60%" r="50%">
      <stop offset="0%" stop-color="#fff8e0"/>
      <stop offset="40%" stop-color="#ffcc44"/>
      <stop offset="100%" stop-color="#ff8800" stop-opacity="0"/>
    </radialGradient>

    <!-- Candle glow -->
    <radialGradient id="candleGlow" cx="50%" cy="50%" r="50%">
      <stop offset="0%" stop-color="#ffdd66" stop-opacity="0.3"/>
      <stop offset="100%" stop-color="#ffaa22" stop-opacity="0"/>
    </radialGradient>

    <!-- Globe gradient -->
    <radialGradient id="globeSurface" cx="40%" cy="35%" r="50%">
      <stop offset="0%" stop-color="#5a9a6a"/>
      <stop offset="50%" stop-color="#3a7a5a"/>
      <stop offset="100%" stop-color="#2a5a3a"/>
    </radialGradient>

    <!-- Note paper -->
    <linearGradient id="notePaper" x1="0%" y1="0%" x2="0%" y2="100%">
      <stop offset="0%" stop-color="#f5f0d8"/>
      <stop offset="100%" stop-color="#e8e0c8"/>
    </linearGradient>

    <!-- Desk surface gradient -->
    <linearGradient id="deskTop" x1="0%" y1="0%" x2="0%" y2="100%">
      <stop offset="0%" stop-color="#8b6340"/>
      <stop offset="100%" stop-color="#6b4a2e"/>
    </linearGradient>

    <!-- Painting sky gradients -->
    <linearGradient id="nightSky" x1="0%" y1="0%" x2="0%" y2="100%">
      <stop offset="0%" stop-color="#1a1a3a"/>
      <stop offset="100%" stop-color="#2a3a5a"/>
    </linearGradient>
    <linearGradient id="sunsetSky" x1="0%" y1="0%" x2="0%" y2="100%">
      <stop offset="0%" stop-color="#ff6633"/>
      <stop offset="40%" stop-color="#ff9944"/>
      <stop offset="100%" stop-color="#ffcc66"/>
    </linearGradient>
    <linearGradient id="seaSky" x1="0%" y1="0%" x2="0%" y2="100%">
      <stop offset="0%" stop-color="#87CEEB"/>
      <stop offset="100%" stop-color="#4a90b8"/>
    </linearGradient>

    <!-- Ambient warm overlay -->
    <radialGradient id="warmAmbient" cx="60%" cy="55%" r="60%">
      <stop offset="0%" stop-color="#ffd080" stop-opacity="0.08"/>
      <stop offset="100%" stop-color="#ff8020" stop-opacity="0"/>
    </radialGradient>
  </defs>

  <!-- ===== BACKGROUND WALL ===== -->
  <rect width="720" height="1280" fill="url(#wallpaper)"/>
  <rect width="720" height="960" fill="#5a4535" opacity="0.3"/>

  <!-- ===== FLOOR ===== -->
  <rect y="960" width="720" height="320" fill="url(#floor)"/>
  <rect y="955" width="720" height="10" fill="#3a2818" rx="2"/>

  <!-- ===== PAINTINGS ON WALL ===== -->

  <!-- Painting 1: Landscape with moon (left) -->
  <g transform="translate(60, 80)">
    <rect x="-8" y="-8" width="196" height="146" rx="4" fill="url(#goldFrame)" stroke="#8a6818" stroke-width="2"/>
    <rect x="-4" y="-4" width="188" height="138" rx="2" fill="#2a1a0a" stroke="#b08828" stroke-width="1"/>
    <rect width="180" height="130" fill="url(#nightSky)"/>
    <circle cx="140" cy="35" r="18" fill="#f0e8c8" opacity="0.9"/>
    <circle cx="146" cy="30" r="16" fill="url(#nightSky)"/>
    <circle cx="140" cy="35" r="30" fill="#c8d8f0" opacity="0.15"/>
    <polygon points="0,90 40,45 80,90" fill="#2a3a2a"/>
    <polygon points="50,90 100,35 150,90" fill="#1a2a1a"/>
    <polygon points="110,90 160,55 180,90" fill="#2a3a2a"/>
    <rect y="85" width="180" height="45" fill="#1a2a18" opacity="0.8"/>
    <circle cx="30" cy="20" r="1.5" fill="#fff" opacity="0.7"/>
    <circle cx="80" cy="15" r="1" fill="#fff" opacity="0.5"/>
    <circle cx="110" cy="28" r="1.2" fill="#fff" opacity="0.6"/>
    <circle cx="60" cy="40" r="1" fill="#fff" opacity="0.4"/>
  </g>

  <!-- Painting 2: Sunset (center) -->
  <g transform="translate(280, 65)">
    <rect x="-8" y="-8" width="176" height="156" rx="4" fill="url(#goldFrame)" stroke="#8a6818" stroke-width="2"/>
    <rect x="-4" y="-4" width="168" height="148" rx="2" fill="#2a1a0a" stroke="#b08828" stroke-width="1"/>
    <rect width="160" height="140" fill="url(#sunsetSky)"/>
    <circle cx="80" cy="55" r="22" fill="#ffdd44" opacity="0.8"/>
    <circle cx="80" cy="55" r="30" fill="#ffaa22" opacity="0.2"/>
    <ellipse cx="40" cy="35" rx="30" ry="8" fill="#ff8855" opacity="0.5"/>
    <ellipse cx="120" cy="45" rx="25" ry="6" fill="#ff7744" opacity="0.4"/>
    <rect y="90" width="160" height="50" fill="#dd7733" opacity="0.6"/>
    <line x1="50" y1="100" x2="110" y2="100" stroke="#ffcc66" stroke-width="1.5" opacity="0.5"/>
    <line x1="40" y1="110" x2="120" y2="110" stroke="#ffbb55" stroke-width="1" opacity="0.4"/>
    <line x1="60" y1="120" x2="100" y2="120" stroke="#ffcc66" stroke-width="0.8" opacity="0.3"/>
  </g>

  <!-- Painting 3: Small seascape (right) -->
  <g transform="translate(500, 100)">
    <rect x="-7" y="-7" width="164" height="114" rx="3" fill="url(#goldFrame)" stroke="#8a6818" stroke-width="2"/>
    <rect x="-3" y="-3" width="156" height="106" rx="2" fill="#2a1a0a" stroke="#b08828" stroke-width="1"/>
    <rect width="150" height="100" fill="url(#seaSky)"/>
    <rect y="50" width="150" height="50" fill="#2a6a9a"/>
    <path d="M0 55 Q15 50 30 55 Q45 60 60 55 Q75 50 90 55 Q105 60 120 55 Q135 50 150 55" stroke="#5aA0d0" stroke-width="1.5" fill="none" opacity="0.6"/>
    <path d="M0 65 Q20 60 40 65 Q60 70 80 65 Q100 60 120 65 Q140 70 150 65" stroke="#4a90c0" stroke-width="1" fill="none" opacity="0.5"/>
    <polygon points="100,42 100,58 88,55" fill="#fff" opacity="0.8"/>
    <line x1="100" y1="40" x2="100" y2="60" stroke="#666" stroke-width="1"/>
    <ellipse cx="40" cy="20" rx="20" ry="7" fill="#fff" opacity="0.5"/>
    <ellipse cx="110" cy="15" rx="15" ry="5" fill="#fff" opacity="0.4"/>
  </g>

  <!-- ===== BOOKSHELF (left side) ===== -->
  <g transform="translate(30, 280)">
    <!-- Bookshelf frame -->
    <rect x="0" y="0" width="260" height="650" fill="#4a2e16" rx="5"/>
    <rect x="10" y="10" width="240" height="630" fill="#3a2210" rx="3"/>

    <!-- Shelf 1 (top) -->
    <rect x="8" y="8" width="244" height="10" fill="url(#shelfWood)" rx="2"/>
    <rect x="18" y="18" width="22" height="110" rx="2" fill="#c83030"/>
    <rect x="42" y="28" width="18" height="100" rx="2" fill="#2850a0"/>
    <rect x="62" y="22" width="20" height="106" rx="2" fill="#208040"/>
    <rect x="84" y="30" width="16" height="98" rx="2" fill="#cc6600"/>
    <rect x="102" y="20" width="24" height="108" rx="2" fill="#7030a0"/>
    <rect x="128" y="26" width="18" height="102" rx="2" fill="#cc3366"/>
    <rect x="148" y="18" width="22" height="110" rx="2" fill="#2266aa"/>
    <rect x="172" y="24" width="20" height="104" rx="2" fill="#44aa44"/>
    <rect x="194" y="20" width="18" height="108" rx="2" fill="#aa4422"/>
    <rect x="214" y="28" width="24" height="100" rx="2" fill="#6644cc"/>
    <line x1="28" y1="40" x2="28" y2="100" stroke="#a02020" stroke-width="0.5" opacity="0.5"/>
    <rect x="52" y="65" width="6" height="8" rx="1" fill="#ffd700" opacity="0.4"/>

    <!-- Shelf 2 -->
    <rect x="8" y="130" width="244" height="10" fill="url(#shelfWood)" rx="2"/>
    <rect x="18" y="140" width="20" height="110" rx="2" fill="#3366cc"/>
    <rect x="40" y="148" width="24" height="102" rx="2" fill="#cc4444"/>
    <rect x="66" y="142" width="18" height="108" rx="2" fill="#44aa66"/>
    <rect x="86" y="150" width="22" height="100" rx="2" fill="#dd8822"/>
    <rect x="110" y="144" width="16" height="106" rx="2" fill="#8833aa"/>
    <rect x="128" y="140" width="26" height="110" rx="2" fill="#cc3355"/>
    <rect x="156" y="146" width="20" height="104" rx="2" fill="#2288bb"/>
    <rect x="178" y="142" width="18" height="108" rx="2" fill="#55bb33"/>
    <rect x="198" y="148" width="24" height="102" rx="2" fill="#aa3322"/>
    <rect x="224" y="140" width="20" height="110" rx="2" fill="#4455cc"/>
    <rect x="134" y="170" width="14" height="4" rx="1" fill="#ffd700" opacity="0.3"/>

    <!-- Shelf 3 -->
    <rect x="8" y="252" width="244" height="10" fill="url(#shelfWood)" rx="2"/>
    <rect x="18" y="262" width="24" height="110" rx="2" fill="#aa3355"/>
    <rect x="44" y="270" width="18" height="102" rx="2" fill="#3388cc"/>
    <rect x="64" y="264" width="22" height="108" rx="2" fill="#44cc44"/>
    <rect x="88" y="268" width="20" height="104" rx="2" fill="#cc8800"/>
    <!-- Globe -->
    <g transform="translate(140, 310)">
      <rect x="-3" y="40" width="6" height="22" fill="#8a6838" rx="1"/>
      <ellipse cx="0" cy="42" rx="14" ry="3" fill="#6a4828"/>
      <circle cx="0" cy="20" r="22" fill="url(#globeSurface)" stroke="#8a7a3a" stroke-width="1.5"/>
      <ellipse cx="0" cy="20" rx="22" ry="8" fill="none" stroke="#4a8a5a" stroke-width="0.8" opacity="0.5" transform="rotate(-23)"/>
      <path d="M-8 5 Q-2 15 -5 30" stroke="#6aaa7a" stroke-width="1" fill="none" opacity="0.5"/>
      <path d="M5 8 Q10 20 8 35" stroke="#5a9a6a" stroke-width="0.8" fill="none" opacity="0.4"/>
      <circle cx="-10" cy="14" r="4" fill="#3a7aaa" opacity="0.4"/>
      <circle cx="8" cy="26" r="5" fill="#3a7aaa" opacity="0.3"/>
    </g>
    <rect x="178" y="262" width="20" height="110" rx="2" fill="#5533aa"/>
    <rect x="200" y="268" width="18" height="104" rx="2" fill="#cc5522"/>
    <rect x="220" y="264" width="22" height="108" rx="2" fill="#2266cc"/>

    <!-- Shelf 4 -->
    <rect x="8" y="374" width="244" height="10" fill="url(#shelfWood)" rx="2"/>
    <rect x="18" y="384" width="22" height="110" rx="2" fill="#cc6633"/>
    <rect x="42" y="392" width="20" height="102" rx="2" fill="#3344aa"/>
    <rect x="64" y="386" width="18" height="108" rx="2" fill="#33aa55"/>
    <rect x="84" y="390" width="24" height="104" rx="2" fill="#aa2244"/>
    <rect x="110" y="384" width="16" height="110" rx="2" fill="#7744bb"/>
    <rect x="128" y="388" width="22" height="106" rx="2" fill="#dd9922"/>
    <!-- Candle -->
    <g transform="translate(175, 445)">
      <circle cx="0" cy="0" r="35" fill="url(#candleGlow)"/>
      <rect x="-8" y="10" width="16" height="44" rx="3" fill="#e8d8b8" stroke="#c8b898" stroke-width="0.5"/>
      <rect x="-1" y="2" width="2" height="12" fill="#4a3a2a"/>
      <ellipse cx="0" cy="-4" rx="6" ry="12" fill="url(#candleFlame)"/>
      <ellipse cx="0" cy="-2" rx="3" ry="7" fill="#fff8e0" opacity="0.7"/>
    </g>
    <rect x="198" y="384" width="20" height="110" rx="2" fill="#5566cc"/>
    <rect x="220" y="390" width="22" height="104" rx="2" fill="#cc4466"/>

    <!-- Shelf 5 (bottom) -->
    <rect x="8" y="496" width="244" height="10" fill="url(#shelfWood)" rx="2"/>
    <rect x="18" y="506" width="26" height="120" rx="2" fill="#bb3344"/>
    <rect x="46" y="514" width="18" height="112" rx="2" fill="#2255bb"/>
    <rect x="66" y="508" width="22" height="118" rx="2" fill="#55cc55"/>
    <rect x="90" y="512" width="20" height="114" rx="2" fill="#dd7733"/>
    <rect x="112" y="508" width="24" height="118" rx="2" fill="#6633bb"/>
    <rect x="138" y="514" width="18" height="112" rx="2" fill="#cc4477"/>
    <rect x="158" y="506" width="22" height="120" rx="2" fill="#3377cc"/>
    <rect x="182" y="510" width="20" height="116" rx="2" fill="#44bb44"/>
    <rect x="204" y="508" width="18" height="118" rx="2" fill="#bb5522"/>
    <rect x="224" y="512" width="20" height="114" rx="2" fill="#5544bb"/>

    <!-- Bottom shelf board -->
    <rect x="8" y="628" width="244" height="10" fill="url(#shelfWood)" rx="2"/>

    <!-- Shelf side panels -->
    <rect x="0" y="0" width="10" height="650" fill="#5a3820" rx="2"/>
    <rect x="250" y="0" width="10" height="650" fill="#4a2e16" rx="2"/>
  </g>

  <!-- ===== DESK ===== -->
  <g transform="translate(100, 780)">
    <!-- Desk top surface -->
    <rect x="0" y="0" width="520" height="180" rx="6" fill="url(#deskTop)" stroke="#5a3a20" stroke-width="2"/>
    <rect x="0" y="0" width="520" height="180" rx="6" fill="url(#woodGrain)" opacity="0.5"/>
    <rect x="2" y="2" width="516" height="6" rx="3" fill="#a07850" opacity="0.4"/>

    <!-- ===== DESK LAMP (right side) ===== -->
    <g transform="translate(420, -60)">
      <path d="M-60 70 L0 -10 L60 70Z" fill="url(#lampCone)" opacity="0.7"/>
      <circle cx="0" cy="30" r="80" fill="url(#lampGlow)"/>
      <ellipse cx="0" cy="68" rx="30" ry="8" fill="#4a4a3a" stroke="#3a3a2a" stroke-width="1"/>
      <rect x="-3" y="-40" width="6" height="110" fill="#5a5a4a" rx="2"/>
      <path d="M-35 -40 L-15 -85 L15 -85 L35 -40Z" fill="#c8a858" stroke="#a08838" stroke-width="1.5"/>
      <path d="M-32 -40 L-13 -82 L13 -82 L32 -40Z" fill="#ddc878" opacity="0.3"/>
      <circle cx="0" cy="-55" r="8" fill="#ffeebb" opacity="0.8"/>
    </g>

    <!-- ===== NOTE ON DESK (center) ===== -->
    <g transform="translate(120, 30)">
      <rect x="4" y="4" width="200" height="120" rx="3" fill="#000" opacity="0.15"/>
      <rect x="0" y="0" width="200" height="120" rx="3" fill="url(#notePaper)" stroke="#c8b898" stroke-width="1"/>
      <path d="M170 0 L200 0 L200 30Z" fill="#d8d0b8" stroke="#c8b898" stroke-width="0.5"/>
      <path d="M170 0 L200 30 L170 30Z" fill="#e8e0c8" stroke="#c8b898" stroke-width="0.5"/>
      <line x1="15" y1="25" x2="185" y2="25" stroke="#c8c0a8" stroke-width="0.5" opacity="0.5"/>
      <line x1="15" y1="50" x2="185" y2="50" stroke="#c8c0a8" stroke-width="0.5" opacity="0.5"/>
      <line x1="15" y1="75" x2="185" y2="75" stroke="#c8c0a8" stroke-width="0.5" opacity="0.5"/>
      <line x1="15" y1="100" x2="185" y2="100" stroke="#c8c0a8" stroke-width="0.5" opacity="0.5"/>
      <!-- Puzzle text -->
      <text x="100" y="48" text-anchor="middle" font-family="'Courier New', monospace" font-size="18" font-weight="bold" fill="#3a2a1a">PIN &#x2192; PEN</text>
      <text x="100" y="78" text-anchor="middle" font-family="'Courier New', monospace" font-size="18" font-weight="bold" fill="#3a2a1a">HILL &#x2192; ???</text>
      <!-- Red underline on ??? -->
      <line x1="118" y1="82" x2="165" y2="82" stroke="#cc2222" stroke-width="2.5"/>
      <line x1="118" y1="82" x2="165" y2="82" stroke="#ff4444" stroke-width="1" opacity="0.6"/>
    </g>

    <!-- ===== NOTES BOOK (left of note) ===== -->
    <g transform="translate(40, 50)">
      <rect x="3" y="3" width="60" height="80" rx="3" fill="#000" opacity="0.1"/>
      <rect x="0" y="0" width="60" height="80" rx="3" fill="#8b4513" stroke="#6a3410" stroke-width="1.5"/>
      <rect x="0" y="0" width="8" height="80" rx="2" fill="#6a3410"/>
      <rect x="14" y="20" width="38" height="18" rx="2" fill="#f0e8d0" opacity="0.9"/>
      <text x="33" y="34" text-anchor="middle" font-family="serif" font-size="9" font-weight="bold" fill="#4a3020">NOTES</text>
      <line x1="14" y1="50" x2="52" y2="50" stroke="#a06830" stroke-width="0.5" opacity="0.5"/>
      <line x1="14" y1="56" x2="52" y2="56" stroke="#a06830" stroke-width="0.5" opacity="0.5"/>
    </g>

    <!-- ===== PEN HOLDER (right of note) ===== -->
    <g transform="translate(350, 35)">
      <rect x="-15" y="20" width="30" height="50" rx="4" fill="#4a4a40" stroke="#3a3a30" stroke-width="1"/>
      <ellipse cx="0" cy="20" rx="15" ry="5" fill="#555550" stroke="#3a3a30" stroke-width="0.5"/>
      <rect x="-8" y="-25" width="4" height="48" rx="1" fill="#222" transform="rotate(-5, -6, 20)"/>
      <rect x="-2" y="-30" width="4" height="52" rx="1" fill="#1a3a8a" transform="rotate(2, 0, 20)"/>
      <rect x="4" y="-22" width="4" height="44" rx="1" fill="#8a1a1a" transform="rotate(6, 6, 20)"/>
      <circle cx="-9" cy="-27" r="1.5" fill="#c0c0c0"/>
      <circle cx="-1" cy="-31" r="1.5" fill="#c0c0c0"/>
      <circle cx="7" cy="-23" r="1.5" fill="#c0c0c0"/>
    </g>
  </g>

  <!-- ===== DESK FRONT PANEL & DRAWER ===== -->
  <g transform="translate(100, 960)">
    <rect x="0" y="0" width="520" height="100" rx="4" fill="#6b4a2e" stroke="#5a3a20" stroke-width="2"/>
    <rect x="0" y="0" width="520" height="100" rx="4" fill="url(#woodGrain)" opacity="0.4"/>
    <!-- Drawer -->
    <rect x="160" y="15" width="200" height="70" rx="4" fill="#5a3a20" stroke="#4a2e16" stroke-width="1.5"/>
    <rect x="164" y="19" width="192" height="62" rx="3" fill="#6b4a2e"/>
    <rect x="235" y="42" width="50" height="10" rx="5" fill="#b8a060" stroke="#8a7838" stroke-width="1"/>
    <rect x="237" y="44" width="46" height="3" rx="1.5" fill="#d0b870" opacity="0.5"/>
    <circle cx="260" cy="62" r="4" fill="#2a1a0a" stroke="#8a7838" stroke-width="1"/>
    <rect x="258" y="62" width="4" height="6" fill="#2a1a0a"/>
  </g>

  <!-- ===== DESK LEGS ===== -->
  <rect x="115" y="1060" width="20" height="140" rx="4" fill="#5a3a20" stroke="#4a2e16" stroke-width="1"/>
  <rect x="585" y="1060" width="20" height="140" rx="4" fill="#5a3a20" stroke="#4a2e16" stroke-width="1"/>
  <rect x="125" y="1140" width="470" height="10" rx="3" fill="#4a2e16" opacity="0.6"/>

  <!-- ===== AMBIENT LIGHTING ===== -->
  <ellipse cx="520" cy="800" rx="200" ry="250" fill="#ffd080" opacity="0.06"/>
  <rect width="720" height="1280" fill="url(#warmAmbient)"/>

  <!-- ===== VIGNETTE ===== -->
  <rect width="720" height="1280" fill="url(#vignette)"/>
  <rect width="720" height="100" fill="url(#nightSky)" opacity="0.15"/>

  <!-- ===== HOTSPOT MARKERS (for coordinate extraction) ===== -->
  <!-- desk-note: [39, 59, 48, 17] - 책장 제외 책상 대부분 -->
  <rect data-hotspot="desk-note" x="281" y="755" width="346" height="218" fill="none" style="pointer-events: auto; cursor: pointer"/>

  <!-- desk-drawer: [36, 76, 28, 6] -->
  <rect data-hotspot="desk-drawer" x="259" y="973" width="201" height="77" fill="none" style="pointer-events: auto; cursor: pointer"/>

  <!-- bookshelf: [4, 22, 36, 51] -->
  <rect data-hotspot="bookshelf" x="29" y="282" width="259" height="651" fill="none" style="pointer-events: auto; cursor: pointer"/>

  <!-- bookshelf-note: [7, 38, 18, 8] -->
  <rect data-hotspot="bookshelf-note" x="50" y="486" width="130" height="102" fill="none" style="pointer-events: auto; cursor: pointer"/>

  <!-- lamp: [64, 50, 17, 13] -->
  <rect data-hotspot="lamp" x="461" y="640" width="122" height="166" fill="none" style="pointer-events: auto; cursor: pointer"/>
</svg>