<svg xmlns="http://www.w3.org/2000/svg" viewBox="0 0 720 1280" width="720" height="1280">
  <defs>
    <!-- Wall gradient - dark warm brown -->
    <linearGradient id="wallGrad" x1="0" y1="0" x2="0" y2="1">
      <stop offset="0%" stop-color="#3a2a1a"/>
      <stop offset="50%" stop-color="#4a3828"/>
      <stop offset="100%" stop-color="#3d2d1d"/>
    </linearGradient>

    <!-- Floor gradient - dark hardwood -->
    <linearGradient id="floorGrad" x1="0" y1="0" x2="0" y2="1">
      <stop offset="0%" stop-color="#2a1e14"/>
      <stop offset="100%" stop-color="#1a1008"/>
    </linearGradient>

    <!-- Fireplace interior -->
    <radialGradient id="fireInterior" cx="0.5" cy="0.8" r="0.7">
      <stop offset="0%" stop-color="#1a1008"/>
      <stop offset="60%" stop-color="#0f0a05"/>
      <stop offset="100%" stop-color="#080503"/>
    </radialGradient>

    <!-- Mantel wood -->
    <linearGradient id="mantelWood" x1="0" y1="0" x2="0" y2="1">
      <stop offset="0%" stop-color="#6b4226"/>
      <stop offset="50%" stop-color="#5a3620"/>
      <stop offset="100%" stop-color="#4d2e18"/>
    </linearGradient>

    <!-- Door wood gradient -->
    <linearGradient id="doorWood" x1="0" y1="0" x2="0.1" y2="1">
      <stop offset="0%" stop-color="#5c3d20"/>
      <stop offset="30%" stop-color="#4e3218"/>
      <stop offset="60%" stop-color="#5a3a1e"/>
      <stop offset="100%" stop-color="#3d2812"/>
    </linearGradient>

    <!-- Door panel inset -->
    <linearGradient id="doorPanel" x1="0" y1="0" x2="0" y2="1">
      <stop offset="0%" stop-color="#3d2812"/>
      <stop offset="50%" stop-color="#4a3218"/>
      <stop offset="100%" stop-color="#3a2510"/>
    </linearGradient>

    <!-- Gold metallic -->
    <linearGradient id="goldMetal" x1="0" y1="0" x2="0" y2="1">
      <stop offset="0%" stop-color="#e8c84a"/>
      <stop offset="40%" stop-color="#d4a830"/>
      <stop offset="100%" stop-color="#b8922a"/>
    </linearGradient>

    <!-- Rug gradient -->
    <linearGradient id="rugGrad" x1="0" y1="0" x2="0" y2="1">
      <stop offset="0%" stop-color="#6b1a2a"/>
      <stop offset="50%" stop-color="#5a1520"/>
      <stop offset="100%" stop-color="#4d1018"/>
    </linearGradient>

    <!-- Coat fabric -->
    <linearGradient id="tweedGrad" x1="0" y1="0" x2="0.3" y2="1">
      <stop offset="0%" stop-color="#6b6050"/>
      <stop offset="50%" stop-color="#5a5040"/>
      <stop offset="100%" stop-color="#4d4535"/>
    </linearGradient>

    <!-- Ambient shadow overlay -->
    <radialGradient id="ambientShadow" cx="0.5" cy="0.35" r="0.75">
      <stop offset="0%" stop-color="#000000" stop-opacity="0"/>
      <stop offset="70%" stop-color="#000000" stop-opacity="0.1"/>
      <stop offset="100%" stop-color="#000000" stop-opacity="0.35"/>
    </radialGradient>

    <!-- Clock face -->
    <radialGradient id="clockFace" cx="0.5" cy="0.5" r="0.5">
      <stop offset="0%" stop-color="#f5f0e0"/>
      <stop offset="85%" stop-color="#e8e0cc"/>
      <stop offset="100%" stop-color="#c8b898"/>
    </radialGradient>

    <!-- Diamond inlay -->
    <linearGradient id="diamondGrad" x1="0" y1="0" x2="1" y2="1">
      <stop offset="0%" stop-color="#e8ddd0"/>
      <stop offset="30%" stop-color="#c8b898"/>
      <stop offset="50%" stop-color="#f0e8d8"/>
      <stop offset="70%" stop-color="#c0b090"/>
      <stop offset="100%" stop-color="#d8cbb8"/>
    </linearGradient>

    <!-- Lock device gradient -->
    <linearGradient id="lockDevice" x1="0" y1="0" x2="0" y2="1">
      <stop offset="0%" stop-color="#3a3a3a"/>
      <stop offset="50%" stop-color="#2a2a2a"/>
      <stop offset="100%" stop-color="#1a1a1a"/>
    </linearGradient>

    <!-- Light streaming through door -->
    <linearGradient id="doorLight" x1="0" y1="0" x2="1" y2="0">
      <stop offset="0%" stop-color="#fffbe0" stop-opacity="0.95"/>
      <stop offset="40%" stop-color="#fff8d0" stop-opacity="0.85"/>
      <stop offset="100%" stop-color="#ffe8a0" stop-opacity="0.5"/>
    </linearGradient>

    <!-- Light rays from door -->
    <radialGradient id="doorGlow" cx="0.3" cy="0.5" r="0.8">
      <stop offset="0%" stop-color="#fffbe0" stop-opacity="0.35"/>
      <stop offset="40%" stop-color="#ffe8a0" stop-opacity="0.15"/>
      <stop offset="100%" stop-color="#ffdd88" stop-opacity="0"/>
    </radialGradient>

    <!-- Note paper -->
    <linearGradient id="noteGrad" x1="0" y1="0" x2="0.1" y2="1">
      <stop offset="0%" stop-color="#e8dcc0"/>
      <stop offset="50%" stop-color="#ddd0b0"/>
      <stop offset="100%" stop-color="#d0c4a0"/>
    </linearGradient>

    <!-- Floor plank pattern -->
    <pattern id="floorPlanks" x="0" y="0" width="120" height="30" patternUnits="userSpaceOnUse">
      <rect width="120" height="30" fill="#2a1e14"/>
      <line x1="0" y1="0" x2="120" y2="0" stroke="#221810" stroke-width="1"/>
      <line x1="60" y1="0" x2="60" y2="30" stroke="#221810" stroke-width="0.5" opacity="0.3"/>
    </pattern>

    <!-- Stone pattern for fireplace -->
    <pattern id="stonePat" x="0" y="0" width="50" height="35" patternUnits="userSpaceOnUse">
      <rect width="50" height="35" fill="#5a5348"/>
      <rect x="1" y="1" width="23" height="15" rx="2" fill="#625a4e" opacity="0.6"/>
      <rect x="26" y="1" width="23" height="15" rx="2" fill="#585048" opacity="0.6"/>
      <rect x="13" y="18" width="23" height="15" rx="2" fill="#5e5648" opacity="0.6"/>
      <rect x="0" y="18" width="12" height="15" rx="1" fill="#5c5448" opacity="0.5"/>
      <rect x="37" y="18" width="13" height="15" rx="1" fill="#565048" opacity="0.5"/>
    </pattern>
  </defs>

  <!-- ======= BACKGROUND WALL ======= -->
  <rect width="720" height="1280" fill="url(#wallGrad)"/>

  <!-- Wainscoting lower wall -->
  <rect x="0" y="680" width="720" height="530" fill="#3a2a1a" opacity="0.3"/>
  <line x1="0" y1="680" x2="720" y2="680" stroke="#4d3820" stroke-width="3"/>

  <!-- Crown molding top -->
  <rect x="0" y="0" width="720" height="8" fill="#4d3820"/>
  <rect x="0" y="8" width="720" height="4" fill="#3d2812"/>

  <!-- ======= FIREPLACE STONE SURROUND ======= -->
  <rect x="150" y="160" width="420" height="400" rx="5" fill="url(#stonePat)" stroke="#4a4338" stroke-width="2"/>

  <!-- Stone arch top -->
  <path d="M175 310 Q360 150 545 310" fill="url(#stonePat)" stroke="#4a4338" stroke-width="2.5"/>
  <!-- Keystone -->
  <path d="M345 190 L375 190 L380 225 L340 225 Z" fill="#6b6155" stroke="#4a4338" stroke-width="1"/>

  <!-- Fireplace opening -->
  <rect x="205" y="310" width="310" height="230" rx="3" fill="url(#fireInterior)"/>
  <path d="M205 310 Q360 275 515 310 L515 310 L205 310 Z" fill="#0f0a05"/>

  <!-- Soot stains inside -->
  <rect x="210" y="318" width="300" height="6" fill="#111" opacity="0.4"/>

  <!-- Ash bed on firebox floor -->
  <ellipse cx="360" cy="525" rx="120" ry="14" fill="#3a3530"/>
  <ellipse cx="360" cy="528" rx="85" ry="9" fill="#4a4540" opacity="0.5"/>

  <!-- Log remnants -->
  <ellipse cx="325" cy="530" rx="28" ry="7" fill="#2a2018" transform="rotate(-12 325 530)"/>
  <ellipse cx="395" cy="530" rx="22" ry="6" fill="#2a2018" transform="rotate(8 395 530)"/>

  <!-- ======= RECONSTRUCTED NOTE ON HEARTH ======= -->
  <g transform="translate(310, 545)">
    <!-- Note paper (slightly burned edges, reconstructed) -->
    <rect x="-45" y="-22" width="90" height="40" rx="2" fill="url(#noteGrad)" stroke="#b0a080" stroke-width="0.8"/>
    <!-- Burned/charred edges -->
    <path d="M-45 -22 L-42 -18 L-45 -14 L-43 -10 L-45 -5" stroke="#5a4a30" stroke-width="1.5" fill="none" opacity="0.6"/>
    <path d="M45 -22 L42 -17 L45 -12 L43 -8 L45 -3" stroke="#5a4a30" stroke-width="1.5" fill="none" opacity="0.6"/>
    <!-- Tape marks showing reconstruction -->
    <line x1="-10" y1="-22" x2="-10" y2="18" stroke="#d8d0b0" stroke-width="2" opacity="0.3"/>
    <line x1="15" y1="-22" x2="15" y2="18" stroke="#d8d0b0" stroke-width="2" opacity="0.3"/>
    <!-- HEAT text on note -->
    <text x="0" y="8" text-anchor="middle" font-family="'Times New Roman', serif" font-size="22" fill="#3a2a1a" font-weight="bold" letter-spacing="4">HEAT</text>
    <!-- Faded ink marks around text -->
    <text x="0" y="-8" text-anchor="middle" font-family="serif" font-size="7" fill="#8a7a60" opacity="0.5">the answer is</text>
  </g>

  <!-- ======= HEARTH STONE BASE ======= -->
  <rect x="130" y="555" width="460" height="28" rx="3" fill="#5a5348" stroke="#4a4338" stroke-width="1.5"/>

  <!-- ======= MANTEL SHELF ======= -->
  <rect x="125" y="148" width="470" height="24" rx="3" fill="url(#mantelWood)" stroke="#3d2812" stroke-width="1.5"/>
  <rect x="130" y="170" width="460" height="6" rx="1" fill="#4d2e18"/>
  <line x1="130" y1="150" x2="590" y2="150" stroke="#7a5535" stroke-width="1" opacity="0.5"/>
  <!-- Mantel brackets -->
  <path d="M165 172 L165 195 L188 195 Q165 195 165 172" fill="#5a3620" stroke="#3d2812" stroke-width="1"/>
  <path d="M555 172 L555 195 L532 195 Q555 195 555 172" fill="#5a3620" stroke="#3d2812" stroke-width="1"/>

  <!-- ======= CLOCK ON MANTEL ======= -->
  <g transform="translate(360, 95)">
    <rect x="-32" y="0" width="64" height="58" rx="5" fill="#5c3d20" stroke="#3d2812" stroke-width="1.5"/>
    <path d="M-27 5 Q0 -22 27 5" fill="#5c3d20" stroke="#3d2812" stroke-width="1.5"/>
    <circle cx="0" cy="26" r="20" fill="url(#clockFace)" stroke="#8a7a5a" stroke-width="1.5"/>
    <text x="0" y="12" text-anchor="middle" font-size="6" fill="#4a3a2a" font-family="serif">12</text>
    <text x="16" y="28" text-anchor="middle" font-size="6" fill="#4a3a2a" font-family="serif">3</text>
    <text x="0" y="44" text-anchor="middle" font-size="6" fill="#4a3a2a" font-family="serif">6</text>
    <text x="-16" y="28" text-anchor="middle" font-size="6" fill="#4a3a2a" font-family="serif">9</text>
    <line x1="0" y1="26" x2="0" y2="12" stroke="#2a1a0a" stroke-width="1.5" stroke-linecap="round"/>
    <line x1="0" y1="26" x2="10" y2="21" stroke="#2a1a0a" stroke-width="1" stroke-linecap="round"/>
    <circle cx="0" cy="26" r="1.5" fill="#2a1a0a"/>
    <ellipse cx="-20" cy="58" rx="6" ry="3" fill="#4d2e18"/>
    <ellipse cx="20" cy="58" rx="6" ry="3" fill="#4d2e18"/>
  </g>

  <!-- ======= LEFT CANDLESTICK ======= -->
  <g transform="translate(225, 95)">
    <rect x="-5" y="30" width="10" height="6" rx="1" fill="url(#goldMetal)"/>
    <rect x="-7" y="34" width="14" height="5" rx="2" fill="url(#goldMetal)"/>
    <rect x="-2.5" y="6" width="5" height="27" fill="url(#goldMetal)"/>
    <rect x="-3.5" y="16" width="7" height="4" rx="1" fill="#d4a830"/>
    <rect x="-3" y="-16" width="6" height="24" rx="1" fill="#e8e0d0"/>
    <line x1="0" y1="-18" x2="0" y2="-16" stroke="#3a3020" stroke-width="1.5" stroke-linecap="round"/>
  </g>

  <!-- ======= RIGHT CANDLESTICK ======= -->
  <g transform="translate(495, 95)">
    <rect x="-5" y="30" width="10" height="6" rx="1" fill="url(#goldMetal)"/>
    <rect x="-7" y="34" width="14" height="5" rx="2" fill="url(#goldMetal)"/>
    <rect x="-2.5" y="6" width="5" height="27" fill="url(#goldMetal)"/>
    <rect x="-3.5" y="16" width="7" height="4" rx="1" fill="#d4a830"/>
    <rect x="-3" y="-16" width="6" height="24" rx="1" fill="#e8e0d0"/>
    <line x1="0" y1="-18" x2="0" y2="-16" stroke="#3a3020" stroke-width="1.5" stroke-linecap="round"/>
  </g>

  <!-- ======= FIREPLACE TOOLS (right of fireplace) ======= -->
  <g transform="translate(600, 310)">
    <ellipse cx="0" cy="225" rx="20" ry="6" fill="#3a3a3a"/>
    <rect x="-2" y="0" width="4" height="225" fill="#4a4a4a"/>
    <circle cx="0" cy="0" r="5" fill="#555"/>
    <line x1="-14" y1="30" x2="-14" y2="210" stroke="#4a4a4a" stroke-width="3" stroke-linecap="round"/>
    <path d="M-14 210 L-20 222 L-14 216 Z" fill="#4a4a4a"/>
    <circle cx="-14" cy="30" r="3" fill="none" stroke="#555" stroke-width="1.5"/>
    <line x1="0" y1="40" x2="0" y2="200" stroke="#4a4a4a" stroke-width="3" stroke-linecap="round"/>
    <ellipse cx="0" cy="212" rx="9" ry="14" fill="#3a3a3a" stroke="#4a4a4a" stroke-width="1"/>
    <circle cx="0" cy="40" r="3" fill="none" stroke="#555" stroke-width="1.5"/>
    <line x1="14" y1="35" x2="14" y2="195" stroke="#4a4a4a" stroke-width="3" stroke-linecap="round"/>
    <rect x="8" y="195" width="12" height="20" rx="2" fill="#3a3530"/>
    <circle cx="14" cy="35" r="3" fill="none" stroke="#555" stroke-width="1.5"/>
  </g>

  <!-- ======= EXIT DOOR (slightly ajar) ======= -->
  <g transform="translate(130, 620)">
    <!-- Door frame outer -->
    <rect x="-15" y="-15" width="340" height="530" rx="3" fill="#3d2812" stroke="#2a1a0a" stroke-width="2"/>
    <!-- Door frame inner molding -->
    <rect x="-8" y="-8" width="326" height="516" rx="2" fill="#4d3218"/>

    <!-- Bright light visible through the gap (behind door) -->
    <rect x="0" y="0" width="310" height="500" rx="2" fill="url(#doorLight)"/>

    <!-- Door surface (slightly ajar - shifted and skewed to show opening) -->
    <g transform="translate(30, 0)">
      <!-- The door panel narrower to show it's rotated open -->
      <polygon points="0,0 260,8 260,492 0,500" fill="url(#doorWood)" stroke="#3d2812" stroke-width="2"/>

      <!-- Horizontal rail lines (perspective adjusted) -->
      <line x1="14" y1="58" x2="248" y2="63" stroke="#3a2510" stroke-width="1.5"/>
      <line x1="14" y1="260" x2="248" y2="262" stroke="#3a2510" stroke-width="1.5"/>
      <line x1="14" y1="440" x2="248" y2="438" stroke="#3a2510" stroke-width="1.5"/>

      <!-- Upper panel with diamond inlay -->
      <polygon points="28,73 232,78 232,240 28,235" fill="url(#doorPanel)" stroke="#3a2510" stroke-width="1.5"/>
      <polygon points="130,93 210,158 130,223 50,158" fill="none" stroke="url(#diamondGrad)" stroke-width="2.5"/>
      <circle cx="130" cy="158" r="8" fill="none" stroke="url(#diamondGrad)" stroke-width="1.5"/>

      <!-- Lower panel with diamond inlay -->
      <polygon points="28,278 232,280 232,428 28,426" fill="url(#doorPanel)" stroke="#3a2510" stroke-width="1.5"/>
      <polygon points="130,295 208,354 130,413 52,354" fill="none" stroke="url(#diamondGrad)" stroke-width="2.5"/>
      <circle cx="130" cy="354" r="6" fill="none" stroke="url(#diamondGrad)" stroke-width="1.5"/>

      <!-- Door hinges left -->
      <rect x="-2" y="80" width="9" height="28" rx="2" fill="#8a7a5a" stroke="#6a5a3a" stroke-width="0.5"/>
      <rect x="-2" y="380" width="9" height="28" rx="2" fill="#8a7a5a" stroke="#6a5a3a" stroke-width="0.5"/>

      <!-- Golden doorknob right side -->
      <g transform="translate(240, 260)">
        <ellipse cx="0" cy="0" rx="11" ry="19" fill="url(#goldMetal)" stroke="#8a7020" stroke-width="1"/>
        <ellipse cx="0" cy="10" rx="3" ry="5" fill="#1a1008"/>
        <circle cx="0" cy="6" r="3" fill="#1a1008"/>
        <circle cx="0" cy="-6" r="10" fill="url(#goldMetal)" stroke="#b8922a" stroke-width="1"/>
        <circle cx="-2" cy="-8" r="3" fill="#e8d870" opacity="0.4"/>
      </g>
    </g>

    <!-- Light gap on left side of door (the opening) -->
    <polygon points="0,0 30,0 30,500 0,500" fill="#fffbe0" opacity="0.9"/>
    <polygon points="0,0 15,2 15,498 0,500" fill="#ffffff" opacity="0.5"/>

    <!-- ======= COMBINATION LOCK DEVICE (SOLVED) ======= -->
    <g transform="translate(185, 455)">
      <rect x="-55" y="-20" width="110" height="40" rx="5" fill="url(#lockDevice)" stroke="#555" stroke-width="1"/>
      <rect x="-44" y="-13" width="88" height="22" rx="2" fill="#0a0a0a" stroke="#333" stroke-width="0.5"/>
      <!-- HEAT text in green -->
      <text x="0" y="5" text-anchor="middle" font-family="'Courier New', monospace" font-size="18" fill="#22dd44" font-weight="bold" letter-spacing="8">HEAT</text>
      <!-- Green LED -->
      <circle cx="42" cy="-9" r="3.5" fill="#118822"/>
      <circle cx="42" cy="-9" r="2.5" fill="#22ee44" opacity="0.9"/>
      <circle cx="42" cy="-9" r="6" fill="#22ff44" opacity="0.2"/>
      <circle cx="42" cy="-9" r="10" fill="#22ff44" opacity="0.08"/>
      <!-- Screws -->
      <circle cx="-49" cy="-15" r="1.5" fill="#555" stroke="#666" stroke-width="0.3"/>
      <circle cx="49" cy="-15" r="1.5" fill="#555" stroke="#666" stroke-width="0.3"/>
      <circle cx="-49" cy="15" r="1.5" fill="#555" stroke="#666" stroke-width="0.3"/>
      <circle cx="49" cy="15" r="1.5" fill="#555" stroke="#666" stroke-width="0.3"/>
    </g>
  </g>

  <!-- ======= LIGHT RAYS STREAMING FROM DOOR ======= -->
  <g opacity="0.25">
    <polygon points="130,620 50,1140 180,1140" fill="#fffbe0"/>
    <polygon points="145,620 120,1140 260,1140" fill="#ffe8a0" opacity="0.5"/>
    <polygon points="135,620 80,1140 220,1140" fill="#ffdd88" opacity="0.3"/>
  </g>
  <!-- Glow on floor from door light -->
  <ellipse cx="170" cy="1140" rx="180" ry="40" fill="#fffbe0" opacity="0.12"/>

  <!-- ======= COAT RACK (right of door) ======= -->
  <g transform="translate(600, 670)">
    <ellipse cx="0" cy="440" rx="24" ry="7" fill="#3d2812"/>
    <path d="M-20 435 L20 435 L15 430 L-15 430 Z" fill="#4a3828" stroke="#3d2812" stroke-width="1"/>
    <rect x="-4" y="10" width="8" height="430" fill="#5a3a20" stroke="#3d2812" stroke-width="0.5"/>
    <circle cx="0" cy="10" r="9" fill="#5a3a20" stroke="#3d2812" stroke-width="1"/>
    <path d="M-4 40 L-28 28 L-32 38 Q-28 46 -22 40" fill="none" stroke="#8a7a5a" stroke-width="3" stroke-linecap="round"/>
    <path d="M4 40 L28 28 L32 38 Q28 46 22 40" fill="none" stroke="#8a7a5a" stroke-width="3" stroke-linecap="round"/>
    <path d="M-4 72 L-24 64 L-27 72 Q-24 78 -19 73" fill="none" stroke="#8a7a5a" stroke-width="2.5" stroke-linecap="round"/>

    <!-- Professor's tweed coat -->
    <g transform="translate(-18, 35)">
      <path d="M-5 0 L-38 18 L-44 140 L-18 150 L-12 35 Z" fill="url(#tweedGrad)" stroke="#3d3528" stroke-width="0.5"/>
      <path d="M18 0 L50 18 L56 140 L30 150 L24 35 Z" fill="url(#tweedGrad)" stroke="#3d3528" stroke-width="0.5"/>
      <path d="M-12 35 L-12 210 Q7 222 28 210 L28 35 Z" fill="#5a5040" stroke="#3d3528" stroke-width="0.5"/>
      <path d="M-5 0 L-12 18 L6 24 L18 0 L12 18 L6 24 Z" fill="#6b6050" stroke="#4d4535" stroke-width="0.5"/>
      <line x1="-5" y1="24" x2="-9" y2="80" stroke="#4d4535" stroke-width="0.8"/>
      <line x1="18" y1="24" x2="22" y2="80" stroke="#4d4535" stroke-width="0.8"/>
      <ellipse cx="-35" cy="85" rx="9" ry="14" fill="#6b5840" opacity="0.5" transform="rotate(-8 -35 85)"/>
      <ellipse cx="48" cy="85" rx="9" ry="14" fill="#6b5840" opacity="0.5" transform="rotate(8 48 85)"/>
      <circle cx="8" cy="60" r="2.5" fill="#4a4030" stroke="#3a3020" stroke-width="0.5"/>
      <circle cx="8" cy="90" r="2.5" fill="#4a4030" stroke="#3a3020" stroke-width="0.5"/>
      <circle cx="8" cy="120" r="2.5" fill="#4a4030" stroke="#3a3020" stroke-width="0.5"/>
    </g>
  </g>

  <!-- ======= WALL SCONCES (dim) ======= -->
  <g transform="translate(55, 380)">
    <path d="M-9 0 L9 0 L14 -28 L-14 -28 Z" fill="#8a7a5a" opacity="0.6"/>
    <rect x="-3" y="-34" width="6" height="8" fill="#e8e0d0" opacity="0.3"/>
  </g>
  <g transform="translate(665, 380)">
    <path d="M-9 0 L9 0 L14 -28 L-14 -28 Z" fill="#8a7a5a" opacity="0.6"/>
    <rect x="-3" y="-34" width="6" height="8" fill="#e8e0d0" opacity="0.3"/>
  </g>

  <!-- ======= FLOOR ======= -->
  <rect x="0" y="1140" width="720" height="140" fill="url(#floorPlanks)"/>
  <rect x="0" y="1140" width="720" height="140" fill="url(#floorGrad)" opacity="0.45"/>
  <line x1="0" y1="1170" x2="720" y2="1170" stroke="#1a1008" stroke-width="0.8" opacity="0.4"/>
  <line x1="0" y1="1200" x2="720" y2="1200" stroke="#1a1008" stroke-width="0.8" opacity="0.4"/>
  <line x1="0" y1="1230" x2="720" y2="1230" stroke="#1a1008" stroke-width="0.8" opacity="0.4"/>
  <line x1="0" y1="1260" x2="720" y2="1260" stroke="#1a1008" stroke-width="0.8" opacity="0.4"/>

  <!-- Baseboard -->
  <rect x="0" y="1133" width="720" height="10" fill="#3d2812" stroke="#2a1a0a" stroke-width="0.5"/>

  <!-- ======= BURGUNDY RUG ======= -->
  <rect x="90" y="1152" width="540" height="110" rx="5" fill="url(#rugGrad)" stroke="#3a0a10" stroke-width="2"/>
  <rect x="100" y="1162" width="520" height="90" rx="3" fill="none" stroke="#8a4a30" stroke-width="1.5"/>
  <rect x="108" y="1170" width="504" height="74" rx="2" fill="none" stroke="#7a3a28" stroke-width="0.8"/>
  <ellipse cx="360" cy="1207" rx="45" ry="14" fill="none" stroke="#8a5a3a" stroke-width="1" opacity="0.5"/>
  <path d="M120 1178 Q136 1190 120 1200" fill="none" stroke="#8a5a3a" stroke-width="0.8" opacity="0.4"/>
  <path d="M600 1178 Q584 1190 600 1200" fill="none" stroke="#8a5a3a" stroke-width="0.8" opacity="0.4"/>
  <g opacity="0.3">
    <line x1="100" y1="1262" x2="100" y2="1272" stroke="#5a1520" stroke-width="1"/>
    <line x1="108" y1="1262" x2="108" y2="1274" stroke="#5a1520" stroke-width="1"/>
    <line x1="116" y1="1262" x2="116" y2="1272" stroke="#5a1520" stroke-width="1"/>
    <line x1="124" y1="1262" x2="124" y2="1273" stroke="#5a1520" stroke-width="1"/>
    <line x1="596" y1="1262" x2="596" y2="1272" stroke="#5a1520" stroke-width="1"/>
    <line x1="604" y1="1262" x2="604" y2="1274" stroke="#5a1520" stroke-width="1"/>
    <line x1="612" y1="1262" x2="612" y2="1272" stroke="#5a1520" stroke-width="1"/>
    <line x1="620" y1="1262" x2="620" y2="1273" stroke="#5a1520" stroke-width="1"/>
  </g>

  <!-- Light cast on rug from door -->
  <ellipse cx="200" cy="1200" rx="100" ry="30" fill="#fffbe0" opacity="0.06"/>

  <!-- ======= AMBIENT OVERLAY ======= -->
  <rect width="720" height="1280" fill="url(#ambientShadow)"/>
  <rect width="720" height="1280" fill="none" stroke="#000" stroke-width="80" opacity="0.1" rx="20"/>
</svg>