<svg xmlns="http://www.w3.org/2000/svg" viewBox="0 0 720 1280" width="720" height="1280">
  <defs>
    <!-- Wall gradient - warm brown tones -->
    <linearGradient id="wallGrad" x1="0" y1="0" x2="0" y2="1">
      <stop offset="0%" stop-color="#5C3D2E"/>
      <stop offset="40%" stop-color="#6B4832"/>
      <stop offset="100%" stop-color="#4A3228"/>
    </linearGradient>

    <!-- Floor gradient -->
    <linearGradient id="floorGrad" x1="0" y1="0" x2="0" y2="1">
      <stop offset="0%" stop-color="#3E2B1F"/>
      <stop offset="100%" stop-color="#2A1D14"/>
    </linearGradient>

    <!-- Ceiling gradient -->
    <linearGradient id="ceilingGrad" x1="0" y1="0" x2="0" y2="1">
      <stop offset="0%" stop-color="#3A2518"/>
      <stop offset="100%" stop-color="#4D3425"/>
    </linearGradient>

    <!-- Sofa leather gradient -->
    <linearGradient id="sofaLeatherGrad" x1="0" y1="0" x2="0" y2="1">
      <stop offset="0%" stop-color="#6B3A2A"/>
      <stop offset="30%" stop-color="#5A3020"/>
      <stop offset="70%" stop-color="#4E2818"/>
      <stop offset="100%" stop-color="#3D1F12"/>
    </linearGradient>

    <!-- Sofa cushion highlight -->
    <linearGradient id="cushionHighlight" x1="0" y1="0" x2="1" y2="1">
      <stop offset="0%" stop-color="#7A4535"/>
      <stop offset="50%" stop-color="#5A3020"/>
      <stop offset="100%" stop-color="#4A2515"/>
    </linearGradient>

    <!-- Sofa armrest gradient -->
    <linearGradient id="armrestGrad" x1="0" y1="0" x2="1" y2="1">
      <stop offset="0%" stop-color="#6B3A2A"/>
      <stop offset="100%" stop-color="#4A2515"/>
    </linearGradient>

    <!-- Side table wood gradient -->
    <linearGradient id="tableWoodGrad" x1="0" y1="0" x2="0" y2="1">
      <stop offset="0%" stop-color="#5C3D28"/>
      <stop offset="100%" stop-color="#3E2A1A"/>
    </linearGradient>

    <!-- Coffee liquid gradient -->
    <radialGradient id="coffeeGrad" cx="0.5" cy="0.5" r="0.5">
      <stop offset="0%" stop-color="#3D2815"/>
      <stop offset="80%" stop-color="#2A1A0D"/>
      <stop offset="100%" stop-color="#1F1209"/>
    </radialGradient>

    <!-- Clock face gradient -->
    <radialGradient id="clockFaceGrad" cx="0.5" cy="0.5" r="0.5">
      <stop offset="0%" stop-color="#F5E6C8"/>
      <stop offset="85%" stop-color="#E8D5B0"/>
      <stop offset="100%" stop-color="#D4C098"/>
    </radialGradient>

    <!-- Frame gold gradient -->
    <linearGradient id="frameGoldGrad" x1="0" y1="0" x2="1" y2="1">
      <stop offset="0%" stop-color="#C9A84C"/>
      <stop offset="30%" stop-color="#B8923A"/>
      <stop offset="70%" stop-color="#A07D2E"/>
      <stop offset="100%" stop-color="#8B6B25"/>
    </linearGradient>

    <!-- Vignette overlay -->
    <radialGradient id="vignetteGrad" cx="0.5" cy="0.5" r="0.7">
      <stop offset="0%" stop-color="rgba(0,0,0,0)"/>
      <stop offset="60%" stop-color="rgba(0,0,0,0.1)"/>
      <stop offset="85%" stop-color="rgba(0,0,0,0.4)"/>
      <stop offset="100%" stop-color="rgba(0,0,0,0.7)"/>
    </radialGradient>

    <!-- Warm ambient light from above -->
    <radialGradient id="ambientLight" cx="0.5" cy="0.15" r="0.6">
      <stop offset="0%" stop-color="rgba(255,200,100,0.12)"/>
      <stop offset="100%" stop-color="rgba(0,0,0,0)"/>
    </radialGradient>

    <!-- Wall texture pattern -->
    <pattern id="wallTexture" x="0" y="0" width="40" height="40" patternUnits="userSpaceOnUse">
      <rect width="40" height="40" fill="none"/>
      <line x1="0" y1="20" x2="40" y2="20" stroke="#5A3A28" stroke-width="0.3" opacity="0.3"/>
      <line x1="20" y1="0" x2="20" y2="40" stroke="#5A3A28" stroke-width="0.3" opacity="0.2"/>
    </pattern>

    <!-- Floor tile pattern -->
    <pattern id="floorTiles" x="0" y="0" width="80" height="40" patternUnits="userSpaceOnUse">
      <rect width="80" height="40" fill="none"/>
      <rect x="0" y="0" width="80" height="40" stroke="#2E1F15" stroke-width="1" fill="none" opacity="0.5"/>
      <rect x="0" y="0" width="40" height="20" stroke="#2E1F15" stroke-width="0.5" fill="none" opacity="0.3"/>
      <line x1="40" y1="20" x2="80" y2="20" stroke="#2E1F15" stroke-width="0.5" opacity="0.3"/>
    </pattern>

    <!-- Persian rug pattern -->
    <pattern id="rugPattern" x="0" y="0" width="24" height="24" patternUnits="userSpaceOnUse">
      <rect width="24" height="24" fill="#7A2E2E"/>
      <rect x="4" y="4" width="16" height="16" fill="none" stroke="#C9A84C" stroke-width="0.8" opacity="0.6"/>
      <circle cx="12" cy="12" r="3" fill="none" stroke="#D4A040" stroke-width="0.6" opacity="0.5"/>
      <line x1="0" y1="12" x2="4" y2="12" stroke="#8B6B25" stroke-width="0.5" opacity="0.4"/>
      <line x1="20" y1="12" x2="24" y2="12" stroke="#8B6B25" stroke-width="0.5" opacity="0.4"/>
      <line x1="12" y1="0" x2="12" y2="4" stroke="#8B6B25" stroke-width="0.5" opacity="0.4"/>
      <line x1="12" y1="20" x2="12" y2="24" stroke="#8B6B25" stroke-width="0.5" opacity="0.4"/>
    </pattern>

    <!-- Rug border pattern -->
    <pattern id="rugBorder" x="0" y="0" width="16" height="16" patternUnits="userSpaceOnUse">
      <rect width="16" height="16" fill="#5C1E1E"/>
      <path d="M0,8 L8,0 L16,8 L8,16 Z" fill="none" stroke="#C9A84C" stroke-width="0.8" opacity="0.5"/>
    </pattern>

    <!-- Rug medallion gradient -->
    <radialGradient id="rugMedallionGrad" cx="0.5" cy="0.5" r="0.5">
      <stop offset="0%" stop-color="#D4A040"/>
      <stop offset="40%" stop-color="#A07D2E"/>
      <stop offset="70%" stop-color="#7A2E2E"/>
      <stop offset="100%" stop-color="#5C1E1E"/>
    </radialGradient>

    <!-- Wainscoting panel shadow -->
    <filter id="panelInset">
      <feDropShadow dx="1" dy="1" stdDeviation="1" flood-color="#2A1A10" flood-opacity="0.5"/>
    </filter>

    <!-- Soft shadow filter -->
    <filter id="softShadow">
      <feDropShadow dx="3" dy="5" stdDeviation="6" flood-color="#1A0E06" flood-opacity="0.6"/>
    </filter>

    <!-- Glow filter for ambient highlights -->
    <filter id="warmGlow">
      <feGaussianBlur stdDeviation="8" result="blur"/>
      <feComposite in="SourceGraphic" in2="blur" operator="over"/>
    </filter>

    <!-- Photo sepia tone -->
    <filter id="sepiaFilter">
      <feColorMatrix type="matrix" values="
        0.39 0.77 0.19 0 0
        0.35 0.69 0.17 0 0
        0.27 0.53 0.13 0 0
        0    0    0    1 0"/>
    </filter>

    <!-- Coaster texture -->
    <pattern id="coasterTexture" x="0" y="0" width="6" height="6" patternUnits="userSpaceOnUse">
      <rect width="6" height="6" fill="#3A2A1A"/>
      <circle cx="3" cy="3" r="1" fill="#2E2015" opacity="0.5"/>
    </pattern>

    <!-- Tufting pattern for sofa back -->
    <pattern id="tuftPattern" x="0" y="0" width="50" height="50" patternUnits="userSpaceOnUse">
      <circle cx="25" cy="25" r="4" fill="#3D1F12" opacity="0.4"/>
      <path d="M0,0 Q25,12 50,0" fill="none" stroke="#3D1F12" stroke-width="0.8" opacity="0.3"/>
      <path d="M0,50 Q25,38 50,50" fill="none" stroke="#3D1F12" stroke-width="0.8" opacity="0.3"/>
      <path d="M0,0 Q12,25 0,50" fill="none" stroke="#3D1F12" stroke-width="0.8" opacity="0.3"/>
      <path d="M50,0 Q38,25 50,50" fill="none" stroke="#3D1F12" stroke-width="0.8" opacity="0.3"/>
    </pattern>
  </defs>

  <!-- ==================== BACKGROUND LAYERS ==================== -->

  <!-- Ceiling -->
  <rect x="0" y="0" width="720" height="120" fill="url(#ceilingGrad)"/>
  <!-- Crown molding -->
  <rect x="0" y="115" width="720" height="8" fill="#4A3228"/>
  <rect x="0" y="118" width="720" height="3" fill="#5C3D2E" opacity="0.6"/>
  <line x1="0" y1="123" x2="720" y2="123" stroke="#3A2518" stroke-width="1"/>

  <!-- Wall -->
  <rect x="0" y="123" width="720" height="620" fill="url(#wallGrad)"/>
  <rect x="0" y="123" width="720" height="620" fill="url(#wallTexture)" opacity="0.4"/>

  <!-- Wainscoting - lower wall -->
  <rect x="0" y="580" width="720" height="163" fill="#4A3228"/>
  <!-- Wainscoting rail -->
  <rect x="0" y="575" width="720" height="10" fill="#5C3D2E"/>
  <line x1="0" y1="575" x2="720" y2="575" stroke="#6B4832" stroke-width="1"/>
  <line x1="0" y1="585" x2="720" y2="585" stroke="#3A2518" stroke-width="1"/>
  <!-- Wainscoting panels -->
  <rect x="20" y="598" width="140" height="130" rx="3" fill="#4E3628" stroke="#3D2518" stroke-width="1.5" filter="url(#panelInset)"/>
  <rect x="180" y="598" width="140" height="130" rx="3" fill="#4E3628" stroke="#3D2518" stroke-width="1.5" filter="url(#panelInset)"/>
  <rect x="340" y="598" width="140" height="130" rx="3" fill="#4E3628" stroke="#3D2518" stroke-width="1.5" filter="url(#panelInset)"/>
  <rect x="500" y="598" width="90" height="130" rx="3" fill="#4E3628" stroke="#3D2518" stroke-width="1.5" filter="url(#panelInset)"/>
  <!-- Baseboard -->
  <rect x="0" y="735" width="720" height="8" fill="#3A2518"/>

  <!-- Floor -->
  <rect x="0" y="743" width="720" height="537" fill="url(#floorGrad)"/>
  <rect x="0" y="743" width="720" height="537" fill="url(#floorTiles)" opacity="0.3"/>

  <!-- ==================== PERSIAN RUG WITH MEDALLION ==================== -->
  <g id="rug">
    <!-- Rug outer border -->
    <rect x="60" y="1000" width="500" height="230" rx="4" fill="url(#rugBorder)"/>
    <!-- Rug inner field -->
    <rect x="78" y="1016" width="464" height="198" rx="2" fill="url(#rugPattern)"/>
    <!-- Rug medallion center -->
    <ellipse cx="310" cy="1115" rx="90" ry="65" fill="url(#rugMedallionGrad)" opacity="0.8"/>
    <ellipse cx="310" cy="1115" rx="60" ry="42" fill="none" stroke="#C9A84C" stroke-width="1.2" opacity="0.6"/>
    <ellipse cx="310" cy="1115" rx="30" ry="20" fill="none" stroke="#D4A040" stroke-width="1" opacity="0.5"/>
    <!-- Corner motifs -->
    <path d="M90,1028 L130,1028 L130,1050 Q110,1040 90,1050 Z" fill="#D4A040" opacity="0.3"/>
    <path d="M530,1028 L490,1028 L490,1050 Q510,1040 530,1050 Z" fill="#D4A040" opacity="0.3"/>
    <path d="M90,1202 L130,1202 L130,1180 Q110,1190 90,1180 Z" fill="#D4A040" opacity="0.3"/>
    <path d="M530,1202 L490,1202 L490,1180 Q510,1190 530,1180 Z" fill="#D4A040" opacity="0.3"/>
    <!-- Fringe on short edges -->
    <g opacity="0.4" stroke="#C9A84C" stroke-width="0.8">
      <line x1="80" y1="1230" x2="80" y2="1240"/>
      <line x1="92" y1="1230" x2="92" y2="1240"/>
      <line x1="104" y1="1230" x2="104" y2="1240"/>
      <line x1="116" y1="1230" x2="116" y2="1240"/>
      <line x1="128" y1="1230" x2="128" y2="1240"/>
      <line x1="140" y1="1230" x2="140" y2="1240"/>
      <line x1="152" y1="1230" x2="152" y2="1240"/>
      <line x1="164" y1="1230" x2="164" y2="1240"/>
      <line x1="176" y1="1230" x2="176" y2="1240"/>
      <line x1="188" y1="1230" x2="188" y2="1240"/>
      <line x1="200" y1="1230" x2="200" y2="1240"/>
      <line x1="212" y1="1230" x2="212" y2="1240"/>
      <line x1="224" y1="1230" x2="224" y2="1240"/>
      <line x1="236" y1="1230" x2="236" y2="1240"/>
      <line x1="248" y1="1230" x2="248" y2="1240"/>
      <line x1="260" y1="1230" x2="260" y2="1240"/>
      <line x1="272" y1="1230" x2="272" y2="1240"/>
      <line x1="284" y1="1230" x2="284" y2="1240"/>
      <line x1="296" y1="1230" x2="296" y2="1240"/>
      <line x1="308" y1="1230" x2="308" y2="1240"/>
      <line x1="320" y1="1230" x2="320" y2="1240"/>
      <line x1="332" y1="1230" x2="332" y2="1240"/>
      <line x1="344" y1="1230" x2="344" y2="1240"/>
      <line x1="356" y1="1230" x2="356" y2="1240"/>
      <line x1="368" y1="1230" x2="368" y2="1240"/>
      <line x1="380" y1="1230" x2="380" y2="1240"/>
      <line x1="392" y1="1230" x2="392" y2="1240"/>
      <line x1="404" y1="1230" x2="404" y2="1240"/>
      <line x1="416" y1="1230" x2="416" y2="1240"/>
      <line x1="428" y1="1230" x2="428" y2="1240"/>
      <line x1="440" y1="1230" x2="440" y2="1240"/>
      <line x1="452" y1="1230" x2="452" y2="1240"/>
      <line x1="464" y1="1230" x2="464" y2="1240"/>
      <line x1="476" y1="1230" x2="476" y2="1240"/>
      <line x1="488" y1="1230" x2="488" y2="1240"/>
      <line x1="500" y1="1230" x2="500" y2="1240"/>
      <line x1="512" y1="1230" x2="512" y2="1240"/>
      <line x1="524" y1="1230" x2="524" y2="1240"/>
      <line x1="536" y1="1230" x2="536" y2="1240"/>
    </g>
    <!-- Rug shadow -->
    <rect x="60" y="1000" width="500" height="230" rx="4" fill="none" stroke="#1A0E06" stroke-width="1" opacity="0.3"/>
  </g>

  <!-- ==================== WALL PHOTOS (5 framed) ==================== -->

  <!-- Photo 1: Professor with early students (leftmost, slightly tilted) -->
  <g id="photo-1" data-interactive="true" transform="translate(42, 160)">
    <!-- Frame -->
    <rect x="-4" y="-4" width="108" height="88" rx="2" fill="url(#frameGoldGrad)" transform="rotate(-2, 50, 40)"/>
    <!-- Photo area -->
    <rect x="0" y="0" width="100" height="80" rx="1" fill="#D4BFA0" filter="url(#sepiaFilter)" transform="rotate(-2, 50, 40)"/>
    <!-- Photo scene: professor at lectern with 2 students -->
    <g transform="rotate(-2, 50, 40)" filter="url(#sepiaFilter)">
      <rect x="0" y="0" width="100" height="80" fill="#C8B090"/>
      <!-- Chalkboard background -->
      <rect x="10" y="5" width="80" height="35" fill="#3A5040" rx="1"/>
      <!-- Professor figure (center, taller) -->
      <circle cx="50" cy="48" r="7" fill="#8B7355"/>
      <rect x="44" y="55" width="12" height="20" rx="2" fill="#4A3A2A"/>
      <!-- Student 1 -->
      <circle cx="28" cy="52" r="5.5" fill="#9B8365"/>
      <rect x="23" y="57" width="10" height="16" rx="2" fill="#5A4A3A"/>
      <!-- Student 2 -->
      <circle cx="72" cy="52" r="5.5" fill="#9B8365"/>
      <rect x="67" y="57" width="10" height="16" rx="2" fill="#5A4A3A"/>
    </g>
    <!-- Frame highlight -->
    <line x1="0" y1="0" x2="100" y2="0" stroke="#D4B868" stroke-width="1" opacity="0.5" transform="rotate(-2, 50, 40)"/>
  </g>

  <!-- Photo 2: Group graduation photo -->
  <g id="photo-2" data-interactive="true" transform="translate(170, 145)">
    <rect x="-4" y="-4" width="128" height="98" rx="2" fill="url(#frameGoldGrad)"/>
    <rect x="0" y="0" width="120" height="90" rx="1" fill="#D4BFA0"/>
    <g filter="url(#sepiaFilter)">
      <rect x="0" y="0" width="120" height="90" fill="#C8B090"/>
      <!-- Graduation caps and gowns scene -->
      <!-- Back row of graduates -->
      <circle cx="25" cy="38" r="6" fill="#8B7355"/>
      <rect x="19" y="44" width="12" height="18" rx="2" fill="#2A2A3A"/>
      <rect x="19" y="32" width="12" height="3" fill="#2A2A3A"/>
      <circle cx="45" cy="35" r="6" fill="#8B7355"/>
      <rect x="39" y="41" width="12" height="20" rx="2" fill="#2A2A3A"/>
      <rect x="39" y="29" width="12" height="3" fill="#2A2A3A"/>
      <circle cx="60" cy="36" r="6" fill="#9B8365"/>
      <rect x="54" y="42" width="12" height="19" rx="2" fill="#2A2A3A"/>
      <rect x="54" y="30" width="12" height="3" fill="#2A2A3A"/>
      <circle cx="78" cy="38" r="6" fill="#8B7355"/>
      <rect x="72" y="44" width="12" height="18" rx="2" fill="#2A2A3A"/>
      <rect x="72" y="32" width="12" height="3" fill="#2A2A3A"/>
      <circle cx="96" cy="37" r="6" fill="#9B8365"/>
      <rect x="90" y="43" width="12" height="19" rx="2" fill="#2A2A3A"/>
      <rect x="90" y="31" width="12" height="3" fill="#2A2A3A"/>
      <!-- Front row - professor center -->
      <circle cx="60" cy="58" r="7" fill="#8B7355"/>
      <rect x="53" y="65" width="14" height="22" rx="2" fill="#4A3A2A"/>
      <!-- Scrolls in hands -->
      <rect x="30" y="70" width="3" height="10" fill="#E8D8B8" rx="1"/>
      <rect x="88" y="70" width="3" height="10" fill="#E8D8B8" rx="1"/>
    </g>
    <line x1="0" y1="0" x2="120" y2="0" stroke="#D4B868" stroke-width="1" opacity="0.5"/>
  </g>

  <!-- Photo 3: Happy lab moment (center, largest) -->
  <g id="photo-3" data-interactive="true" transform="translate(318, 155)">
    <rect x="-4" y="-4" width="118" height="98" rx="2" fill="url(#frameGoldGrad)"/>
    <rect x="0" y="0" width="110" height="90" rx="1" fill="#D4BFA0"/>
    <g filter="url(#sepiaFilter)">
      <rect x="0" y="0" width="110" height="90" fill="#C8B090"/>
      <!-- Lab/study scene - people gathered around table -->
      <rect x="15" y="50" width="80" height="25" fill="#6B5A3A" rx="2"/>
      <!-- Books on table -->
      <rect x="25" y="45" width="15" height="8" fill="#8B6B35"/>
      <rect x="55" y="46" width="12" height="7" fill="#7A5A30"/>
      <!-- People laughing/celebrating -->
      <circle cx="30" cy="35" r="6" fill="#8B7355"/>
      <rect x="24" y="41" width="12" height="14" rx="2" fill="#5A4A3A"/>
      <circle cx="55" cy="32" r="7" fill="#8B7355"/>
      <rect x="48" y="39" width="14" height="16" rx="2" fill="#4A3A2A"/>
      <circle cx="80" cy="35" r="6" fill="#9B8365"/>
      <rect x="74" y="41" width="12" height="14" rx="2" fill="#5A4A3A"/>
      <!-- Raised arms (celebration) -->
      <line x1="24" y1="41" x2="18" y2="30" stroke="#5A4A3A" stroke-width="2.5" stroke-linecap="round"/>
      <line x1="86" y1="41" x2="92" y2="30" stroke="#5A4A3A" stroke-width="2.5" stroke-linecap="round"/>
    </g>
    <line x1="0" y1="0" x2="110" y2="0" stroke="#D4B868" stroke-width="1" opacity="0.5"/>
  </g>

  <!-- Photo 4: Professor and single student (mentor moment) -->
  <g id="photo-4" data-interactive="true" transform="translate(456, 170)">
    <rect x="-4" y="-4" width="98" height="78" rx="2" fill="url(#frameGoldGrad)" transform="rotate(1.5, 45, 35)"/>
    <rect x="0" y="0" width="90" height="70" rx="1" fill="#D4BFA0" transform="rotate(1.5, 45, 35)"/>
    <g filter="url(#sepiaFilter)" transform="rotate(1.5, 45, 35)">
      <rect x="0" y="0" width="90" height="70" fill="#C8B090"/>
      <!-- Two figures side by side, bookshelf behind -->
      <rect x="5" y="5" width="80" height="30" fill="#5C3D1E" rx="1"/>
      <line x1="25" y1="5" x2="25" y2="35" stroke="#4A3018" stroke-width="1"/>
      <line x1="45" y1="5" x2="45" y2="35" stroke="#4A3018" stroke-width="1"/>
      <line x1="65" y1="5" x2="65" y2="35" stroke="#4A3018" stroke-width="1"/>
      <!-- Professor -->
      <circle cx="32" cy="42" r="7" fill="#8B7355"/>
      <rect x="26" y="49" width="12" height="18" rx="2" fill="#4A3A2A"/>
      <!-- Student -->
      <circle cx="58" cy="44" r="6" fill="#9B8365"/>
      <rect x="52" y="50" width="12" height="16" rx="2" fill="#5A4A3A"/>
      <!-- Shared book between them -->
      <rect x="38" y="52" width="10" height="7" fill="#E8D8B8" rx="1"/>
    </g>
    <line x1="0" y1="0" x2="90" y2="0" stroke="#D4B868" stroke-width="1" opacity="0.5" transform="rotate(1.5, 45, 35)"/>
  </g>

  <!-- Photo 5: Small oval portrait (professor young) -->
  <g id="photo-5" data-interactive="true" transform="translate(572, 185)">
    <ellipse cx="42" cy="35" rx="46" ry="39" fill="url(#frameGoldGrad)"/>
    <clipPath id="ovalClip">
      <ellipse cx="42" cy="35" rx="40" ry="33"/>
    </clipPath>
    <g clip-path="url(#ovalClip)" filter="url(#sepiaFilter)">
      <rect x="2" y="2" width="80" height="66" fill="#C8B090"/>
      <!-- Young professor portrait -->
      <circle cx="42" cy="22" r="10" fill="#8B7355"/>
      <rect x="32" y="32" width="20" height="30" rx="3" fill="#4A3A2A"/>
      <!-- Glasses detail -->
      <circle cx="38" cy="20" r="3.5" fill="none" stroke="#3A2A1A" stroke-width="0.8"/>
      <circle cx="46" cy="20" r="3.5" fill="none" stroke="#3A2A1A" stroke-width="0.8"/>
      <line x1="41.5" y1="20" x2="42.5" y2="20" stroke="#3A2A1A" stroke-width="0.8"/>
    </g>
    <!-- Oval frame highlight -->
    <ellipse cx="42" cy="35" rx="43" ry="36" fill="none" stroke="#D4B868" stroke-width="1" opacity="0.4"/>
  </g>

  <!-- ==================== WALL CLOCK (stopped at 3:47) ==================== -->
  <g id="clock" data-interactive="true" transform="translate(555, 310)">
    <!-- Clock body / case -->
    <circle cx="50" cy="50" r="52" fill="#4A3228" stroke="#3A2518" stroke-width="2"/>
    <circle cx="50" cy="50" r="48" fill="url(#clockFaceGrad)"/>
    <!-- Clock rim -->
    <circle cx="50" cy="50" r="48" fill="none" stroke="#8B6B25" stroke-width="2.5"/>
    <circle cx="50" cy="50" r="45" fill="none" stroke="#D4C098" stroke-width="0.5" opacity="0.4"/>

    <!-- Hour markers -->
    <!-- 12 -->
    <rect x="48" y="8" width="4" height="10" fill="#4A3228" rx="1"/>
    <!-- 3 -->
    <rect x="82" y="48" width="10" height="4" fill="#4A3228" rx="1"/>
    <!-- 6 -->
    <rect x="48" y="82" width="4" height="10" fill="#4A3228" rx="1"/>
    <!-- 9 -->
    <rect x="8" y="48" width="10" height="4" fill="#4A3228" rx="1"/>
    <!-- Minor hour dots -->
    <circle cx="50" cy="10" r="0" fill="none"/>
    <circle cx="70" cy="13" r="1.5" fill="#6B4832"/>
    <circle cx="85" cy="28" r="1.5" fill="#6B4832"/>
    <circle cx="88" cy="50" r="0" fill="none"/>
    <circle cx="85" cy="72" r="1.5" fill="#6B4832"/>
    <circle cx="70" cy="87" r="1.5" fill="#6B4832"/>
    <circle cx="50" cy="90" r="0" fill="none"/>
    <circle cx="30" cy="87" r="1.5" fill="#6B4832"/>
    <circle cx="15" cy="72" r="1.5" fill="#6B4832"/>
    <circle cx="12" cy="50" r="0" fill="none"/>
    <circle cx="15" cy="28" r="1.5" fill="#6B4832"/>
    <circle cx="30" cy="13" r="1.5" fill="#6B4832"/>

    <!-- Hour hand pointing to ~3 (slightly past, toward 3:47 position) -->
    <line x1="50" y1="50" x2="73" y2="55" stroke="#2A1A10" stroke-width="3.5" stroke-linecap="round"/>
    <!-- Minute hand pointing to ~47 min (between 9 and 10 on clock face) -->
    <line x1="50" y1="50" x2="17" y2="39" stroke="#2A1A10" stroke-width="2.5" stroke-linecap="round"/>
    <!-- Center cap -->
    <circle cx="50" cy="50" r="3.5" fill="#3A2518"/>
    <circle cx="50" cy="50" r="2" fill="#5C3D2E"/>

    <!-- Glass reflection -->
    <ellipse cx="38" cy="35" rx="18" ry="12" fill="white" opacity="0.06" transform="rotate(-20, 38, 35)"/>

    <!-- Small text below clock -->
    <text x="50" y="70" text-anchor="middle" font-size="5" fill="#6B4832" font-family="serif" opacity="0.6">WESTMINSTER</text>
  </g>

  <!-- ==================== OLD LEATHER SOFA ==================== -->
  <g id="sofa" data-interactive="true" filter="url(#softShadow)">
    <!-- Sofa shadow on floor -->
    <ellipse cx="280" cy="960" rx="260" ry="25" fill="#1A0E06" opacity="0.4"/>

    <!-- Sofa back (tufted) -->
    <path d="M45,620 Q40,580 55,550 Q80,520 140,510 Q280,495 420,510 Q480,520 505,550 Q520,580 515,620 Z"
          fill="url(#sofaLeatherGrad)" stroke="#3D1F12" stroke-width="1.5"/>
    <!-- Tufting overlay on back -->
    <path d="M55,555 Q280,540 505,555 L505,620 Q280,610 55,620 Z"
          fill="url(#tuftPattern)" opacity="0.5"/>
    <!-- Tufting buttons row 1 -->
    <circle cx="120" cy="560" r="3" fill="#3D1F12" opacity="0.5"/>
    <circle cx="200" cy="555" r="3" fill="#3D1F12" opacity="0.5"/>
    <circle cx="280" cy="553" r="3" fill="#3D1F12" opacity="0.5"/>
    <circle cx="360" cy="555" r="3" fill="#3D1F12" opacity="0.5"/>
    <circle cx="440" cy="560" r="3" fill="#3D1F12" opacity="0.5"/>
    <!-- Tufting buttons row 2 -->
    <circle cx="160" cy="590" r="2.5" fill="#3D1F12" opacity="0.4"/>
    <circle cx="240" cy="587" r="2.5" fill="#3D1F12" opacity="0.4"/>
    <circle cx="320" cy="586" r="2.5" fill="#3D1F12" opacity="0.4"/>
    <circle cx="400" cy="588" r="2.5" fill="#3D1F12" opacity="0.4"/>

    <!-- Sofa back highlight -->
    <path d="M70,530 Q280,510 490,530" fill="none" stroke="#7A4535" stroke-width="1" opacity="0.4"/>

    <!-- Sofa seat base -->
    <rect x="48" y="620" width="464" height="130" rx="8" fill="url(#sofaLeatherGrad)"/>
    <rect x="48" y="620" width="464" height="130" rx="8" fill="none" stroke="#3D1F12" stroke-width="1"/>

    <!-- Seat cushions (4) -->
    <!-- Cushion 1 -->
    <rect x="58" y="628" width="105" height="80" rx="12" fill="url(#cushionHighlight)"/>
    <rect x="58" y="628" width="105" height="80" rx="12" fill="none" stroke="#3D1F12" stroke-width="0.8"/>
    <path d="M65,640 Q110,635 155,640" fill="none" stroke="#7A4535" stroke-width="0.8" opacity="0.4"/>
    <path d="M70,700 Q110,705 150,700" fill="none" stroke="#3D1F12" stroke-width="0.6" opacity="0.3"/>

    <!-- Cushion 2 -->
    <rect x="170" y="626" width="105" height="82" rx="12" fill="url(#cushionHighlight)"/>
    <rect x="170" y="626" width="105" height="82" rx="12" fill="none" stroke="#3D1F12" stroke-width="0.8"/>
    <path d="M177,638 Q222,633 267,638" fill="none" stroke="#7A4535" stroke-width="0.8" opacity="0.4"/>
    <path d="M180,700 Q222,705 262,700" fill="none" stroke="#3D1F12" stroke-width="0.6" opacity="0.3"/>

    <!-- Cushion 3 -->
    <rect x="282" y="626" width="105" height="82" rx="12" fill="url(#cushionHighlight)"/>
    <rect x="282" y="626" width="105" height="82" rx="12" fill="none" stroke="#3D1F12" stroke-width="0.8"/>
    <path d="M289,638 Q334,633 379,638" fill="none" stroke="#7A4535" stroke-width="0.8" opacity="0.4"/>
    <path d="M292,700 Q334,705 374,700" fill="none" stroke="#3D1F12" stroke-width="0.6" opacity="0.3"/>

    <!-- Cushion 4 -->
    <rect x="394" y="628" width="105" height="80" rx="12" fill="url(#cushionHighlight)"/>
    <rect x="394" y="628" width="105" height="80" rx="12" fill="none" stroke="#3D1F12" stroke-width="0.8"/>
    <path d="M401,640 Q446,635 491,640" fill="none" stroke="#7A4535" stroke-width="0.8" opacity="0.4"/>
    <path d="M404,700 Q446,705 486,700" fill="none" stroke="#3D1F12" stroke-width="0.6" opacity="0.3"/>

    <!-- Seat front edge / valance -->
    <rect x="48" y="710" width="464" height="40" rx="6" fill="#4E2818"/>
    <path d="M48,730 Q280,740 512,730" fill="none" stroke="#3D1F12" stroke-width="1" opacity="0.5"/>

    <!-- Left armrest (curved) -->
    <path d="M30,540 Q15,580 18,640 Q20,720 35,755 Q40,760 55,758 Q60,755 58,740 L55,640 Q55,590 48,555 Z"
          fill="url(#armrestGrad)" stroke="#3D1F12" stroke-width="1.2"/>
    <!-- Armrest top curve highlight -->
    <path d="M32,545 Q20,590 22,640 Q24,700 37,750" fill="none" stroke="#7A4535" stroke-width="1" opacity="0.3"/>
    <!-- Armrest rolled top -->
    <ellipse cx="38" cy="542" rx="14" ry="8" fill="#5A3020" stroke="#3D1F12" stroke-width="1"/>

    <!-- Right armrest (curved) -->
    <path d="M530,540 Q545,580 542,640 Q540,720 525,755 Q520,760 505,758 Q500,755 502,740 L505,640 Q505,590 512,555 Z"
          fill="url(#armrestGrad)" stroke="#3D1F12" stroke-width="1.2"/>
    <path d="M528,545 Q540,590 538,640 Q536,700 523,750" fill="none" stroke="#7A4535" stroke-width="1" opacity="0.3"/>
    <ellipse cx="522" cy="542" rx="14" ry="8" fill="#5A3020" stroke="#3D1F12" stroke-width="1"/>

    <!-- Sofa legs (small wooden bun feet) -->
    <rect x="60" y="750" width="16" height="18" rx="3" fill="#3E2A1A"/>
    <rect x="220" y="750" width="16" height="18" rx="3" fill="#3E2A1A"/>
    <rect x="324" y="750" width="16" height="18" rx="3" fill="#3E2A1A"/>
    <rect x="484" y="750" width="16" height="18" rx="3" fill="#3E2A1A"/>

    <!-- Worn leather detail on seat edge -->
    <path d="M100,715 Q120,718 140,715" fill="none" stroke="#6B4832" stroke-width="0.5" opacity="0.4"/>
    <path d="M300,715 Q320,718 340,715" fill="none" stroke="#6B4832" stroke-width="0.5" opacity="0.4"/>
  </g>

  <!-- ==================== SIDE TABLE (right side) ==================== -->
  <g id="side-table" data-interactive="true">
    <!-- Table shadow -->
    <ellipse cx="630" cy="950" rx="65" ry="12" fill="#1A0E06" opacity="0.35"/>

    <!-- Table legs -->
    <rect x="588" y="800" width="8" height="150" fill="url(#tableWoodGrad)"/>
    <rect x="668" y="800" width="8" height="150" fill="url(#tableWoodGrad)"/>
    <!-- Cross brace (X shape) -->
    <line x1="592" y1="830" x2="672" y2="920" stroke="#4A3228" stroke-width="4" stroke-linecap="round"/>
    <line x1="672" y1="830" x2="592" y2="920" stroke="#4A3228" stroke-width="4" stroke-linecap="round"/>
    <!-- Cross brace center joint -->
    <circle cx="632" cy="875" r="5" fill="#5C3D28" stroke="#3E2A1A" stroke-width="1"/>

    <!-- Table top surface -->
    <rect x="578" y="788" width="108" height="16" rx="3" fill="#5C3D28" stroke="#3E2A1A" stroke-width="1"/>
    <!-- Table top edge highlight -->
    <line x1="580" y1="790" x2="684" y2="790" stroke="#6B4832" stroke-width="0.8" opacity="0.5"/>

    <!-- Lower shelf -->
    <rect x="590" y="915" width="84" height="8" rx="2" fill="#4A3228"/>

    <!-- Coaster (with hidden text) -->
    <g id="coaster" data-interactive="true" transform="translate(612, 760)">
      <circle cx="20" cy="20" r="22" fill="url(#coasterTexture)" stroke="#2E2015" stroke-width="1.5"/>
      <circle cx="20" cy="20" r="18" fill="none" stroke="#4A3A28" stroke-width="0.5" opacity="0.6"/>
      <!-- Hidden text on coaster - very subtle, needs close inspection -->
      <text x="20" y="18" text-anchor="middle" font-size="3.2" fill="#3A2A1A" font-family="serif" opacity="0.25" letter-spacing="0.5">TEMPUS</text>
      <text x="20" y="23" text-anchor="middle" font-size="3.2" fill="#3A2A1A" font-family="serif" opacity="0.25" letter-spacing="0.5">FUGIT</text>
      <!-- Cork ring marks -->
      <circle cx="20" cy="20" r="14" fill="none" stroke="#4A3A28" stroke-width="0.3" opacity="0.4"/>
      <circle cx="20" cy="20" r="10" fill="none" stroke="#4A3A28" stroke-width="0.3" opacity="0.3"/>
    </g>

    <!-- Cold coffee cup -->
    <g id="coffee-cup" transform="translate(620, 748)">
      <!-- Cup body -->
      <path d="M2,0 L2,24 Q2,30 8,30 L24,30 Q30,30 30,24 L30,0 Z"
            fill="#E8DCC8" stroke="#C8B8A0" stroke-width="1"/>
      <!-- Cup rim -->
      <ellipse cx="16" cy="0" rx="15" ry="4" fill="#E8DCC8" stroke="#C8B8A0" stroke-width="0.8"/>
      <!-- Coffee inside (dark, cold) -->
      <ellipse cx="16" cy="2" rx="13" ry="3" fill="url(#coffeeGrad)"/>
      <!-- Coffee surface film (cold indicator) -->
      <ellipse cx="14" cy="1.5" rx="6" ry="1.5" fill="#4A3520" opacity="0.3"/>
      <!-- Handle -->
      <path d="M30,6 Q40,6 40,15 Q40,24 30,24" fill="none" stroke="#C8B8A0" stroke-width="2.5" stroke-linecap="round"/>
      <!-- Coffee ring stain on cup exterior -->
      <path d="M4,20 Q16,22 28,20" fill="none" stroke="#A89070" stroke-width="0.5" opacity="0.4"/>
    </g>
  </g>

  <!-- ==================== DECORATIVE DETAILS ==================== -->

  <!-- Subtle picture hanging wires -->
  <path d="M92,130 L92,160" stroke="#8B8070" stroke-width="0.5" opacity="0.3"/>
  <path d="M230,130 L230,145" stroke="#8B8070" stroke-width="0.5" opacity="0.3"/>
  <path d="M373,130 L373,155" stroke="#8B8070" stroke-width="0.5" opacity="0.3"/>
  <path d="M501,130 L501,170" stroke="#8B8070" stroke-width="0.5" opacity="0.3"/>
  <path d="M614,130 L614,185" stroke="#8B8070" stroke-width="0.5" opacity="0.3"/>

  <!-- Small nail shadows above photos -->
  <circle cx="92" cy="130" r="1.5" fill="#3A2518"/>
  <circle cx="230" cy="130" r="1.5" fill="#3A2518"/>
  <circle cx="373" cy="130" r="1.5" fill="#3A2518"/>
  <circle cx="501" cy="130" r="1.5" fill="#3A2518"/>
  <circle cx="614" cy="130" r="1.5" fill="#3A2518"/>

  <!-- Dust particles in light beam (subtle) -->
  <circle cx="300" cy="400" r="1" fill="#FFD080" opacity="0.08"/>
  <circle cx="250" cy="350" r="0.8" fill="#FFD080" opacity="0.06"/>
  <circle cx="380" cy="420" r="0.6" fill="#FFD080" opacity="0.07"/>
  <circle cx="200" cy="300" r="0.7" fill="#FFD080" opacity="0.05"/>
  <circle cx="450" cy="380" r="0.9" fill="#FFD080" opacity="0.06"/>

  <!-- Throw pillow on sofa (adds lived-in feel) -->
  <g transform="translate(88, 610)">
    <path d="M0,20 Q10,-5 40,-5 Q70,-5 80,20 Q70,45 40,45 Q10,45 0,20 Z"
          fill="#6B3535" stroke="#4A2525" stroke-width="1" transform="rotate(-10, 40, 20)"/>
    <line x1="20" y1="5" x2="60" y2="5" stroke="#7A4545" stroke-width="0.5" opacity="0.5" transform="rotate(-10, 40, 20)"/>
    <!-- Tassel -->
    <line x1="2" y1="22" x2="-3" y2="25" stroke="#8B5050" stroke-width="1.5" stroke-linecap="round" opacity="0.6"/>
  </g>

  <!-- Small blanket draped over armrest -->
  <g transform="translate(470, 580)">
    <path d="M0,30 Q10,10 30,5 Q50,0 55,15 Q60,30 55,60 Q50,80 40,90 L20,85 Q15,70 10,55 Z"
          fill="#5C4A3A" stroke="#4A3A2A" stroke-width="0.8" opacity="0.7"/>
    <path d="M15,15 Q35,8 50,18" fill="none" stroke="#6B5A4A" stroke-width="0.5" opacity="0.4"/>
    <!-- Fringe -->
    <g stroke="#6B5A4A" stroke-width="0.8" opacity="0.4">
      <line x1="22" y1="85" x2="20" y2="92"/>
      <line x1="27" y1="87" x2="25" y2="94"/>
      <line x1="32" y1="88" x2="30" y2="95"/>
      <line x1="37" y1="89" x2="36" y2="95"/>
    </g>
  </g>

  <!-- ==================== LIGHTING OVERLAYS ==================== -->

  <!-- Ambient warm light from above -->
  <rect x="0" y="0" width="720" height="1280" fill="url(#ambientLight)"/>

  <!-- Subtle warm glow on wall behind photos -->
  <ellipse cx="360" cy="200" rx="300" ry="120" fill="#FFD080" opacity="0.04"/>

  <!-- Vignette overlay for atmospheric depth -->
  <rect x="0" y="0" width="720" height="1280" fill="url(#vignetteGrad)"/>

  <!-- Top shadow for ceiling depth -->
  <rect x="0" y="0" width="720" height="80" fill="url(#ceilingGrad)" opacity="0.5"/>

  <!-- Subtle warm color grading overlay -->
  <rect x="0" y="0" width="720" height="1280" fill="#1A0E06" opacity="0.12"/>
</svg>